<?xml version="1.0" encoding="utf-8"?>
<!-- Generator: Adobe Illustrator 20.0.0, SVG Export Plug-In . SVG Version: 6.00 Build 0)  -->
<svg version="1.1" id="Layer_1" xmlns="http://www.w3.org/2000/svg" xmlns:xlink="http://www.w3.org/1999/xlink" x="0px" y="0px"
	 viewBox="0 0 500 500" style="enable-background:new 0 0 500 500;" xml:space="preserve">
<style type="text/css">
	.st0{fill:none;stroke:#000000;stroke-width:1.000000e-02;stroke-linecap:round;stroke-miterlimit:10;}
</style>
<polyline class="st0" points="300.8,500 300.4,489.8 296.5,480.4 294.8,469.4 284.8,464.2 278.5,455.7 268.9,451.5 259.1,447.4 
	248.5,448.3 237.6,446.8 227.6,451.1 218.6,456.8 212.7,465.8 203.4,471.9 199.4,482 195.5,492.2 "/>
<polyline class="st0" points="195.4,500 198.1,489.5 200.2,479.1 205.8,470 213.7,462.9 220.1,453.9 230,449.4 240.1,444.9 
	251.2,445.7 261.7,447.8 272,450.6 279.6,458.4 288.5,463.9 298.1,470.2 299.1,481.8 303.3,491.6 "/>
<polyline class="st0" points="302.5,500 302.2,489.5 298.2,479.8 296.4,468.6 286.5,463 280,454.3 270.2,449.8 260.2,445.4 
	249.3,445.6 238.1,444.3 227.6,448.4 217.9,453.9 211.9,463.4 203.2,470.2 197.5,479.7 194.8,490.5 "/>
<polyline class="st0" points="193.3,500 196,489.2 198,478.4 203.7,468.9 211.9,461.7 218.4,452.3 228.3,447 238.9,442.9 
	250.3,444.2 261.3,445.1 271.6,448.8 281,454.3 288.3,462.3 298.1,468.5 299.9,479.9 303.9,489.9 "/>
<polyline class="st0" points="305.1,500 304.8,489.1 300.7,479 298.8,467.5 288.8,461.3 281.8,452.6 271.8,447.6 261.4,443.5 
	250.1,442.8 238.5,441.5 227.7,445.7 217.6,451.1 211,460.7 202.6,468.1 196.9,477.7 194.9,488.8 191.9,499.7 "/>
<polyline class="st0" points="190,500 192.6,488.7 194.8,477.3 200.7,467.3 209.4,459.8 216,449.8 226.3,444 237.5,439.8 
	249.4,441.1 261,441.1 271.7,445.7 282,450.6 289,459.7 299.7,465.6 301.8,477.4 306.8,487.6 308.4,498.8 "/>
<polyline class="st0" points="309.6,500 309.3,488.3 305.1,477.5 303,465.1 292.6,458.2 284.4,449.7 274.4,443.2 263,439.8 
	251.1,437.7 238.8,437 227.6,442.2 216.3,446.6 208.5,456.2 200.7,464.9 195.2,475.2 192.2,486.4 186.6,497.7 "/>
<polyline class="st0" points="182.4,500 185.1,487.3 187.4,474.6 194.1,463.4 203.6,454.8 211.2,443.9 222.7,437.7 235.1,433.1 
	248.3,434.5 261.1,433.9 273.4,437.9 285,443.4 293.1,453.4 304.9,459.8 309.6,472 314.5,483.8 317.4,496.5 "/>
<polyline class="st0" points="335.5,500 334.8,483.5 329.3,467.9 325,451.3 311.8,440.3 299.1,429.8 285.7,419.6 269.7,414.6 
	253,411.7 236.1,412.6 220.6,419.5 204.2,424 192.3,436.1 181.3,448.3 172.5,462.3 167.8,478.1 160.7,493.9 "/>
<polyline class="st0" points="170.5,500 173.2,485.1 176,470.2 183.6,457.1 194.6,446.9 204,434.9 217.3,427.6 231.5,421.9 
	246.7,422.4 261.7,422.2 276.1,426.3 290.3,431.4 300.9,442.2 313.4,451 319.7,464.9 326,478.5 329.4,493.3 "/>
<polyline class="st0" points="322.7,500 322.4,486.1 317.8,472.9 314.7,458.5 303.4,449.2 291.9,441.4 281.5,431.3 268.2,425.8 
	253.8,424.3 239.4,424.8 226.7,431.9 212.2,434 202.3,444.6 192.8,454.7 182.6,464.9 178.3,478.6 173.6,492.3 "/>
<polyline class="st0" points="176.5,500 178.9,486.4 181.1,472.6 188.1,460.5 198.7,451.6 207.2,440.6 219,433.5 231.9,428.2 
	245.8,428 259.3,429.2 272.9,431 286.3,435 296,445.2 306.4,454.1 315,465 318.6,478.4 323.2,491.5 "/>
<polyline class="st0" points="318.9,500 318.8,486.9 314.6,474.5 312,460.7 301.1,452.1 290.1,445 281,434.5 268.4,429.1 
	254.7,428.1 241.2,428.4 229.3,435.5 215.5,436.6 205.7,446 196.9,455.6 186.2,464.5 182.2,477.5 177.8,490.4 "/>
<polyline class="st0" points="179.2,500 181.4,487 183.4,473.9 190.1,462.3 200.5,454 208.1,443.2 219.4,436.4 231.8,432 
	244.9,431.6 257.8,431.6 271,432.4 284.1,435.7 293.1,446.1 302.8,454.7 312.2,464.3 315,477.4 319.6,489.7 "/>
<polyline class="st0" points="316.8,500 316.8,487.4 312.8,475.5 310.8,462 300.1,453.8 289.8,446.6 281.3,435.9 268.8,431.5 
	255.7,430.3 242.8,431 230.6,435.3 218.1,438.3 207.3,445.4 199.3,455.4 189.6,464.1 184.2,476 180.2,488.5 "/>
<polyline class="st0" points="180.8,500 182.9,487.4 184.8,474.7 191.2,463.5 201.3,455.5 208.3,444.5 219.4,438.2 231.5,434.5 
	243.9,432.6 256.5,432.2 269.4,432.7 281.9,436.6 290.4,447 299.8,455 310.6,462.9 312.1,476.3 316.5,488 "/>
<polyline class="st0" points="315.6,500 315.7,487.8 311.7,476.2 310.1,463 299.4,455.2 290,447.4 281.6,437.1 269.3,433.2 
	256.6,432.9 244.2,433.3 231.9,434.8 219.9,438.5 209,444.9 202,455.5 191.9,463.3 185.7,474.4 184.1,487 181.5,499.3 "/>
<polyline class="st0" points="181.7,500 183.6,487.7 185.6,475.3 191.5,464.2 201.3,456.2 208.2,445.6 219.1,439.5 231.2,436.6 
	242.9,432.5 255.3,431.8 267.9,433 279.6,437.8 287.8,447.9 298,454.4 308,462.2 310,475 314.8,486.1 317.2,498.1 "/>
<polyline class="st0" points="315,500 315.2,488 311.1,476.7 309.7,463.7 299.1,456.1 290.5,447.8 282.1,437.9 269.9,434.6 
	257.5,434.3 245.5,434.4 233,433.8 221.5,438.4 210.6,444.3 203.3,454.4 194.3,462.6 188.8,473.5 186.8,485.4 181.2,496.9 "/>
<polyline class="st0" points="182.1,500 183.8,487.9 186,475.7 191.4,464.6 200.9,456.5 208.6,447.2 218.7,440.4 230.9,438.9 
	241.8,432.4 254.1,432.2 266.4,433.3 277.6,438.5 287.4,445.8 295.6,454.3 306.2,461.1 309.6,473.1 314.6,484 318,495.8 "/>
<polyline class="st0" points="314.8,500 315.1,488.1 311.1,477 309.7,464.1 299.5,456.5 291,448.2 282.8,438.5 270.5,436 
	258.5,434.8 246.6,433.4 234.3,433.2 222.7,437.3 211.8,443.1 204.6,453.4 196.5,461.9 190.9,472.3 187.7,483.5 181.7,494.6 "/>
<polyline class="st0" points="182.1,500 183.6,488 185.9,476 191.2,465 200.6,457 208.5,448.1 217.7,440.3 230.2,439.5 240.7,432.5 
	252.9,432.2 264.7,434.8 276,438.5 286.7,443.9 294.2,453.4 305.2,459.5 310.1,470.7 314.9,481.8 317.6,493.6 "/>
<polyline class="st0" points="315.1,500 315.5,488.2 311.6,477 310,464.5 300.5,456.4 291.8,448.2 283.4,439.1 271.3,436.3 
	259.7,433.5 247.8,433.9 235.4,432.1 223.9,436.5 213.1,442.1 205.4,451.7 197.7,460.5 190.4,469.9 185.6,480.8 181.4,492.3 "/>
<polyline class="st0" points="181.6,500 182.9,488 185.5,476.1 190.8,465.2 199.8,456.9 208,448.5 216.5,439.8 229,438.8 
	239.6,432.5 251.6,431.9 263.6,433.5 274.7,437.9 285.6,442.7 293.8,451.4 304.5,457.7 310.2,468.4 313.8,479.9 318,491.2 "/>
<polyline class="st0" points="315.8,500 316.3,488.2 312.6,477 310.6,464.6 301.7,456 292.8,448.1 284.2,439.3 272.4,436.2 
	260.9,432.8 249,432.4 236.6,430.9 225.5,436.5 214.3,440.9 206.4,450.3 198.4,458.8 188.4,466.5 185.1,478.4 180.7,489.8 "/>
<polyline class="st0" points="180.5,500 181.6,487.9 184.6,476.1 189.7,465 198.8,456.8 207,448.4 215.3,439.4 227.7,437.8 
	238.2,430.8 250.4,431.4 262.5,431.7 273.9,436 285.3,440 293.5,449.1 303.1,456.3 311,465.7 313.6,477.7 317.7,488.9 "/>
<polyline class="st0" points="317.2,500 317.7,488.1 314,476.7 311.7,464.4 303.1,455.5 294,447.8 285.4,438.9 273.7,435.4 
	262.3,431.1 250.2,430.7 237.8,429.8 227.3,437 214.9,438.8 206.5,447.8 198.2,456.2 189.2,464.5 183.8,475.6 181.3,487.6 
	179.7,499.7 "/>
<polyline class="st0" points="178.8,500 179.7,487.7 183.1,475.8 187.8,464.4 197.4,456.3 205.5,447.6 213.9,438.6 225.7,435.1 
	236.7,428.6 249.2,430 261.4,430.5 273,433.9 285.1,437 293.9,445.9 302.5,454.3 312.6,462.3 314,475.2 317.6,486.6 319.8,498.4 "/>
<polyline class="st0" points="319.3,500 319.8,487.9 316,476.3 313.4,463.9 305.3,454.5 295.4,447.1 286.9,438.1 275.3,433.9 
	263.8,429.3 251.5,428.1 239.1,428.7 228.2,435.1 215.5,436.4 205.9,444.2 198,453.5 188.6,461.7 182.9,472.8 181.5,485.2 
	176.9,497 "/>
<polyline class="st0" points="176.3,500 177,487.4 180.7,475.3 185.2,463.4 195.2,455.2 203.5,446.4 211.8,436.8 223.4,431.9 
	235,426.3 247.9,428.4 260.3,428.2 272.5,430.6 285.3,433 293.6,443.4 302.9,451.3 312.8,459.5 314.7,472.5 320.4,483.5 
	323.8,495.7 "/>
<polyline class="st0" points="322.3,500 322.9,487.5 319,475.6 316.1,463 307.8,453.1 298,445.2 288.8,436.6 277.3,431.5 
	265.4,427.3 252.9,424.8 240.1,425.2 228.7,431.8 215.9,433.3 204.7,439.6 197.4,450.3 188,458.8 182.6,470.2 180.1,482.4 
	174.2,494.2 "/>
<polyline class="st0" points="172.7,500 173.3,486.9 177.2,474.4 181.6,461.9 192.1,453.4 200.5,444 209.2,434.1 220.8,428 
	233.2,423.4 246.4,424.3 259.2,425.3 272.4,425.5 285.2,429.1 293.2,440.7 303.5,448 314.1,456 318.3,468.5 323.8,480.1 
	326.9,492.8 "/>
<polyline class="st0" points="326.7,500 327.4,486.9 323.3,474.3 320.1,461.2 311.6,450.8 301.3,442.6 291.9,433.4 280,427.7 
	267.5,423.2 254.5,420.3 241.1,420.7 228.3,424.8 215.5,428.3 203.8,434.9 195.6,445.6 186.7,455.1 180.4,466.5 175.5,478.5 
	169.9,491 "/>
<polyline class="st0" points="167.3,500 167.8,486.1 172,472.9 176.4,459.6 187.3,450.4 196.2,440.4 205.3,429.8 217.5,423.1 
	230.8,418.8 244.8,419.6 258.3,419.2 272.3,419.2 285.1,424.9 295.8,433.7 305,443.5 317.1,450.9 322.7,463.6 327.5,476.3 
	332.1,489.3 "/>
<polyline class="st0" points="333.6,500 334.3,485.9 330.2,472.3 326.3,458.4 318.2,446.5 305.9,438.6 296.3,428.2 283.9,421.2 
	270.8,415.2 256.4,413.5 242.1,415 227.9,416.5 214.3,421.1 201.3,427.6 192.1,438.8 182.9,449.4 172.9,459.9 168.2,473.5 
	163.2,487.1 "/>
<polyline class="st0" points="157.4,500 157.9,484.6 162.6,470 167.6,455.4 179.2,444.9 188.9,433.7 199.2,422.2 212.7,414.9 
	227.2,409.8 242.5,409.7 257.6,407.7 273,409 286.9,415.9 300.1,423.3 310,434.8 323.4,442.9 331.7,455.8 336,470.5 340.2,484.9 "/>
<polyline class="st0" points="349.4,500 350,483.4 345.5,467.4 340.5,451.4 331.6,437 317,428 306,415.3 291.6,407 276.2,399.8 
	259.3,398.8 242.7,400.1 225.8,399.8 209.6,405 194.8,413.1 183.3,425.5 172.4,437.8 160,449.5 153.7,465.1 150.1,481.5 
	147.8,498.1 "/>
<polyline class="st0" points="91.3,500 92.6,474 100,449.2 109.1,424.9 126.2,405.2 142.9,385.9 161.3,367.6 184.3,355.6 
	208.8,347.3 234.1,342.8 260,341.5 285.4,346.2 309.7,354.5 332.8,365.8 352.6,382.2 371.7,399.3 388.2,419.5 395.8,444.4 
	403.2,468.8 407.9,494.1 "/>
<polyline class="st0" points="387.2,500 387.5,477.5 381.6,455.7 373.9,434.4 362.2,414.8 343.9,401 328,385.2 309,372.7 
	287.9,363.9 265.1,362.4 242.6,361.1 219.8,361.9 198.3,369.8 177.8,379.6 160.9,394.8 145,410.5 129.5,427.2 119.5,447.7 
	115.6,470.1 109.3,492.1 "/>
<polyline class="st0" points="116.8,500 117.7,478.5 124.1,457.9 131.5,437.7 145.6,421.4 159.8,405.8 174.1,389.7 193.2,379.8 
	213.6,373.3 234.2,367.5 255.7,367 276.9,370.3 297.1,377.1 317.2,384.7 333.6,398.4 348.6,413.4 364.4,428.4 369.7,449.7 
	378,469.1 383.2,490 "/>
<polyline class="st0" points="375.6,500 376.2,479.6 370.8,459.9 363.4,440.8 353.7,422.6 336.7,410.3 322,396.6 306.1,383.3 
	286.7,376 266,374.5 245.8,373.5 225,372.3 206.2,381.6 186.5,387.6 170.6,400.7 156.8,415.7 142.5,430.3 133.6,448.8 128.7,468.5 
	120.8,487.8 "/>
<polyline class="st0" points="124.5,500 125.2,479.9 131.3,460.8 138.5,442.2 151.2,426.8 164.2,412.2 177.5,397.2 194.9,387.5 
	214.3,382.8 232.9,375.5 252.9,374.9 272.8,376.6 291.6,383.1 311,388.8 325.9,402.5 340.4,415.7 354.6,429.8 362,448.4 
	370.3,466.4 374.8,485.9 "/>
<polyline class="st0" points="370,500 370.8,480.7 365.6,462.1 358.2,444.3 349.6,426.8 333.9,414.9 319.4,402.8 305.7,388.2 
	286.7,382.8 267.6,379.2 248.4,378.1 228.8,377.8 211.3,387.1 192.4,391.8 175.6,401.5 163.2,416.6 150.4,430.8 141.3,447.7 
	133,465.1 127.2,483.7 "/>
<polyline class="st0" points="128.9,500 129.5,480.9 135.4,462.7 142.9,445.3 154.3,430.3 166.5,416.2 179.2,402.2 195.4,392.2 
	214.2,388.7 231.5,380.5 250.4,379.8 269.3,381.2 287.6,385.8 306.3,390.8 319.4,405.5 333.9,417 348.8,429.1 357,446.3 364,463.8 
	369.2,481.9 "/>
<polyline class="st0" points="366.5,500 367.4,481.5 362.3,463.7 355.2,446.6 347.2,429.8 332.5,418 318.3,406.7 305.5,392.2 
	287.2,387.3 269.3,382.7 250.8,381.4 232.2,382 215.2,390 196.7,393.2 180.6,402.7 168.2,416.6 156.1,430.3 143.7,444.4 
	137.1,461.9 131.6,479.8 130.7,498.5 "/>
<polyline class="st0" points="131.8,500 132.3,481.6 138.2,464.1 145.9,447.6 155.9,432.5 167.7,419.1 179.6,405.1 195.4,395.7 
	213.2,391.7 229.6,382.6 248.1,383.2 266.2,384.5 284.4,386.6 301.9,392.6 316,404.7 329,417.1 344.3,427.7 354.1,443.3 
	359.2,460.9 364.2,478.3 367.2,496.2 "/>
<polyline class="st0" points="364,500 365.1,482.1 360.1,464.9 353.5,448.3 345.9,431.9 331.9,420.3 318.5,408.7 305.9,395 
	288.1,390.6 271,385 253.1,383.3 235,383.8 217.8,389.1 200.5,394.1 184.3,402.3 172.1,415.8 160.4,429 147.6,442 140,458.4 
	137.4,476.4 132.4,493.8 "/>
<polyline class="st0" points="133.9,500 134.3,482.1 140.1,465.2 147.8,449.3 156.7,434.3 168.4,421.3 179.5,407.2 194.7,397.9 
	212.1,394 227.8,384.5 245.9,385.9 263.4,386.7 281.4,387 297.6,394.5 312.9,403.6 325.6,415.7 339.3,426.9 351.3,440.3 355.4,458 
	361.8,474.3 366.1,491.6 "/>
<polyline class="st0" points="362.3,500 363.4,482.6 358.5,465.9 352.4,449.6 344.9,433.7 331.8,421.9 319,410.4 306.2,397.9 
	289.2,393 272.6,387.4 255.3,384.9 237.8,385.6 220.5,388.7 203.7,393.8 188.1,402.2 176.1,415.1 163.8,427.1 151.4,439.6 
	144.2,455.6 141.2,472.9 134.1,489.3 "/>
<polyline class="st0" points="135.4,500 135.7,482.6 141.4,466.1 149.1,450.7 157.2,435.7 168.8,423.2 179.8,409.9 193.8,399.6 
	210.4,394.4 226.1,386.4 243.7,386.8 260.8,387 278.3,387.6 294,395.5 309.4,403.2 322.6,414.1 335,425.8 347.9,437.8 351.9,455.1 
	359.9,470.4 364,487.2 "/>
<polyline class="st0" points="361,500 362.3,483 357.4,466.7 351.6,450.7 344.4,435.1 331.9,423.3 319.5,411.9 306.7,400.3 
	290.3,395.1 274.2,389.7 257.5,386 240.5,388.2 223.2,388.4 206.9,394 191.6,401.8 179,413.4 167.4,425.5 155.4,437.6 148.9,453.3 
	142.3,468.8 136.1,484.9 "/>
<polyline class="st0" points="136.4,500 136.6,482.9 142.2,466.8 149.8,451.8 157.1,436.7 169,424.9 180,412.3 193.1,401.5 
	208.5,394.6 224.4,388.5 241.6,388.9 258.4,386.5 274.9,390.2 290.8,395.8 306.9,401.2 319.6,412.5 331.9,423.8 344.2,435.6 
	351.3,451 357,466.8 361.8,483 360.6,499.8 "/>
<polyline class="st0" points="360.2,500 361.6,483.3 356.8,467.3 351,451.8 344.2,436.3 332.1,424.6 320.2,413.1 307.5,402.2 
	291.8,396.3 276.3,389.9 259.7,387.3 243,388.9 225.9,387.9 210.7,395.6 194.6,400.6 180.7,410.1 170.3,423.4 159.3,435.7 
	150.2,449.5 142.9,464.5 138,480.6 136.8,497.4 "/>
<polyline class="st0" points="136.9,500 137.1,483.2 142.6,467.4 150.1,452.6 156.8,437.6 168.7,426.1 179.7,414.1 192,402.8 
	206.7,394.9 222.7,389.7 239.3,388.5 255.9,387 272.3,389.7 288,395.1 304.5,399 315.9,412 328,422.6 341.5,432.8 349.9,447.2 
	354.6,463.2 358.9,478.9 362.4,495.1 "/>
<polyline class="st0" points="359.9,500 361.3,483.6 356.7,467.8 350.7,452.7 344.6,437.2 332.4,425.9 320.9,414.3 308,404.3 
	293.3,397.1 278.5,389.4 261.7,389.3 245.4,389 228.7,387.6 214.2,396.9 198,400.3 184,408.9 173,421.2 162.3,433.2 150.1,444.9 
	143.8,460.4 141.7,476.8 136.4,492.7 "/>
<polyline class="st0" points="137.1,500 137.1,483.5 142.7,467.9 150.1,453.4 156.4,438.4 167.5,426.5 179,415.3 190.7,403.7 
	205.1,395.6 221,391.3 237,387.7 253.4,387.4 269.7,389.2 285.4,393.8 301.6,397.7 313.1,410.2 325,420.7 338.6,430.2 348.7,443.3 
	352.6,459.5 358.4,474.5 362.6,490.4 "/>
<polyline class="st0" points="359.9,500 361.5,483.8 357,468.2 350.6,453.4 345.3,437.8 333.2,426.6 321.5,415.6 309.4,405.1 
	295.2,397.2 280.4,390.1 263.8,390 247.8,388.6 231.5,388.2 217,396.4 200.6,398.6 186.1,406 175.3,418.6 164.7,430.5 152.6,441.7 
	146.2,456.7 143.8,472.8 136.6,488 "/>
<polyline class="st0" points="136.9,500 136.8,483.6 142.7,468.3 149.8,453.9 155.4,438.8 166.6,427.2 178,416.1 189.1,404.1 
	203.6,396.8 219.2,392.5 234.7,387.7 250.9,387.7 267,389 283,391.5 298.2,397.3 311.8,406.3 323.4,417.4 335.7,427.7 347.5,439.2 
	350.5,455.9 358.4,470 362.3,485.7 "/>
<polyline class="st0" points="360.3,500 362.1,483.9 357.8,468.4 351.1,453.9 346.4,438.2 334.7,426.8 322.7,416.3 310.8,405.7 
	297.2,397.1 282.3,390.7 266.2,388.8 250.3,387.5 234.1,387.6 218.8,392.6 203.2,396.8 188.7,404 177.8,416 166.4,427 155.3,438.6 
	149.6,453.6 142.3,467.9 136.8,483.2 136.6,499.5 "/>
<polyline class="st0" points="136.2,500 136.1,483.8 142.5,468.7 148.7,454.2 154.1,439 165.3,427.5 176.7,416.6 187.5,404.6 
	201.9,397.2 217.7,394.2 232.5,387.8 248.5,387.5 264.3,389.3 280.6,389.3 295.2,396.4 309.2,404.1 321.7,414 332.9,425.1 
	344.7,436.2 351.3,450.9 356.9,465.8 360.9,481.2 362.5,497 "/>
<polyline class="st0" points="361.1,500 363,484 358.9,468.5 351.8,454.3 347.9,438.3 336.4,426.8 324.1,416.7 312.7,405.6 
	299.5,396.4 284.2,391.5 268.6,388 252.8,386.2 236.7,386.4 221,389.6 205.5,394 191.4,401.8 179.3,412.4 168.9,424.2 158.1,435.6 
	149.2,448.8 142.2,463.1 138.9,478.8 135.2,494.4 "/>
<polyline class="st0" points="135.3,500 135.2,483.9 141.9,469 146.9,454.1 152.7,439.2 164.2,428 174.9,416.6 185.5,404.4 
	199.8,397.1 215.9,395 229.9,385.9 246.1,387.4 261.8,387.5 278,387.6 292.4,395 307.5,400.3 319.4,411.1 330.6,422.1 343.1,432.3 
	351.4,446 355.8,461.5 360.1,476.5 364.7,491.9 "/>
<polyline class="st0" points="362.2,500 364.2,484.1 360.3,468.6 352.5,454.7 349.6,438.3 338,426.9 325.2,417.5 314.1,406.4 
	302.2,395.2 286.3,391.6 271.1,386.7 255.3,384.9 239.4,386.4 223.4,387.1 208.6,393.2 193.7,398.9 180.3,407.8 170.4,420.5 
	160,432.1 148.4,443.5 141.8,458.1 141,474.4 134.2,489.3 "/>
<polyline class="st0" points="134.1,500 134.1,483.9 141.1,469.2 145.1,454.1 151.1,439.3 162.7,428.2 173.1,416.6 183.5,404.3 
	197.7,397 213.4,394 227.3,384.8 243.5,385.6 259.4,384.4 274.9,388 290,392.5 305.7,396.4 316.1,409.6 327.9,419.5 341.4,428.4 
	351.2,441.2 354.3,457.2 361.3,471.4 365.2,486.8 "/>
<polyline class="st0" points="363.5,500 365.6,484.1 361.7,468.7 353.7,454.9 351.2,438.4 339.8,426.9 326.8,417.7 315.3,407.5 
	304.5,394.8 288.5,391.4 273.5,386.6 257.9,383.6 242.1,386 225.9,384.4 212.1,393.6 196.5,396.9 182.6,404.6 171.9,416.5 
	161.8,428.4 149.9,439.3 144.2,454.2 140.6,469.5 133.5,484.1 "/>
<polyline class="st0" points="132.7,500 132.8,484 140,469.4 143.4,454.1 149.1,439.1 161,428.3 171.1,416.4 181.8,404.8 
	195.5,396.8 210.8,392.5 224.8,384.2 240.9,385.2 256.7,382.8 272.4,385.2 287.4,390.1 303.3,393.5 315.2,404.6 326.5,415.4 
	339,425.1 350.3,436.5 354.6,452.2 360.9,466.5 365.1,481.7 365.8,497.5 "/>
<polyline class="st0" points="365,500 367.1,484.1 363.2,468.8 355.4,455 352.8,438.6 341.6,426.9 329,417.4 317.1,407.6 
	306.7,394.5 291,390.6 276,385.9 260.5,383 244.8,383.7 228.6,382.4 214.8,391.8 198.8,393.8 184.7,401.1 174.1,413.2 162.9,424 
	152.1,435.5 145.9,449.9 138.4,463.8 134.3,479 131.3,494.7 "/>
<polyline class="st0" points="131.1,500 131.3,484 138.6,469.5 141.3,453.9 147.4,439.2 158.9,428 169.4,416.6 179.6,404.5 
	192.7,395.5 207.6,389.9 222.3,383.7 238.2,382.5 253.9,381.4 269.7,383.3 285.2,386.5 300,392.1 313.3,400.8 325.3,410.9 
	336.6,421.6 348.4,432.4 354.8,447 360.5,461.6 364.2,476.8 368.9,492 "/>
<polyline class="st0" points="366.7,500 368.8,484.1 364.8,468.8 357.3,454.9 354.5,438.7 344.6,426 331.1,417.1 319.9,406.6 
	308.9,394.6 293.5,390.2 279.2,382.7 263.1,382.8 247.5,382 231.6,381.8 216.7,387 201.2,390.5 187.1,397.9 175.5,408.8 
	164.9,420.2 154.5,431.7 143.5,443.5 137.4,458.2 136,474.2 129.7,489.1 "/>
<polyline class="st0" points="129.3,500 129.5,484 136.8,469.5 139,453.7 145.5,439.2 156.8,427.9 167,416.2 176.8,403.5 
	190.1,394.7 204.5,387.8 219.6,383 235.3,380 251.1,380.1 266.8,381.8 282.8,382.7 297.1,389.9 311.6,396.4 323.6,406.7 
	334.6,417.8 347.4,427.5 355.8,441.1 359.9,456.6 366,471.1 370,486.4 "/>
<polyline class="st0" points="368.7,500 370.8,484.1 366.7,468.8 359.5,454.7 356.3,438.7 347.2,425.6 333.9,416.3 322.9,405.3 
	311.2,394.4 296.3,388.9 282,381.4 265.9,381.4 250.3,379.2 234.4,379.1 218.9,382.5 203.5,386.9 189.3,394.1 176,402.8 
	166.1,415.5 155.9,427.2 144.7,438.6 138.2,453.1 135.8,468.9 128.3,483.4 128.2,499.4 "/>
<polyline class="st0" points="127.2,500 127.4,484 134.6,469.4 136.5,453.5 142.9,438.8 154.2,427.4 164.5,415.7 174.8,403.6 
	187.5,394.1 201.4,386.2 217.1,382.8 232.4,378.4 248.3,378.4 263.9,379.9 280.1,379.7 294.4,387.3 309.9,391.5 320.5,404.1 
	332.4,414 344.9,423.7 356.5,435.1 359.5,451.4 366.6,465.5 370.6,480.8 371.7,496.5 "/>
<polyline class="st0" points="371,500 373.1,484.1 369,468.7 362.1,454.4 358.4,438.6 349.8,425.1 336.8,415.4 325.9,404.2 
	313.5,394.3 299.4,387 284.9,380.2 269,378.3 253.2,376.3 237.4,377.2 221.4,378.5 206.9,385.5 192,390.9 178.1,398.8 167.4,410.7 
	156.9,422.3 145.4,433.4 140,448.4 132.6,462.4 128.6,477.8 125.4,493.5 "/>
<polyline class="st0" points="124.7,500 125,484 132.1,469.2 133.6,453.1 140,438.3 151.5,426.8 161.7,415 172.5,403.5 184.5,393 
	198.8,385.6 214.5,382.6 229.2,376 245.3,376.7 261.2,375.8 276.8,378.8 291.9,383.5 307.8,387 319.8,398.1 331.6,408.5 
	343.5,418.9 354.8,430.3 361.1,445 366.9,459.8 370.4,475.1 375.3,490.5 "/>
<polyline class="st0" points="373.6,500 375.8,484 371.6,468.5 365.1,454 361.1,438.3 352.5,424.7 340.3,414.1 329,403 316.4,393.3 
	302.8,385 287.8,379.4 272.2,375.6 256.3,373.4 240.4,375.8 224.1,374.5 210.1,383.7 194.2,386.5 179.9,394 169.1,406 158,417.1 
	147.4,428.8 137.4,441.4 130.9,456.1 129.7,472.3 122.9,487.3 "/>
<polyline class="st0" points="121.8,500 122.2,483.8 129.1,468.9 130.3,452.6 136.6,437.6 148.6,426.2 158.8,414.3 169.8,403 
	181.2,391.4 195.6,384.2 211.8,382.1 225.8,372.6 242.2,373.9 258.2,372 274.1,374.3 289.5,378.9 304.9,383.7 318.2,392.9 
	330.8,402.7 342.2,413.7 354.2,424.6 362.7,438.3 366.9,454 373.3,468.6 377.4,484.2 "/>
<polyline class="st0" points="376.7,500 378.9,483.8 374.8,468.2 368.5,453.5 364.2,437.8 355.6,424 343.7,412.9 332.1,402 
	319.7,391.9 306.5,382.3 290.9,377.9 275.5,373.3 259.6,370.5 243.4,371.6 227.1,371 212.7,379.6 196.5,381.9 182.1,389.3 
	169.9,399.9 159,411.5 148.5,423.4 137.2,435.2 130.9,450.1 127.9,465.9 120.6,480.8 120.3,497.1 "/>
<polyline class="st0" points="118.6,500 118.9,483.7 125.7,468.6 126.9,452.1 133.4,437 144.8,425 155.6,413.3 166.5,401.7 
	177.7,389.9 192.1,382.3 208.3,379.4 222.4,370.1 238.9,370.9 255,368.8 271.1,371 287.2,373.3 302,380.2 316.8,386.8 328.9,397.7 
	340,409.1 353.3,418.8 364.1,431.2 367.4,447.8 374.3,462.2 378.1,477.9 380.9,493.8 "/>
<polyline class="st0" points="380,500 382.3,483.7 378,467.9 371.8,453 367.6,437.1 359.2,423 347.1,411.9 335.2,401.1 323.4,390.1 
	310.5,379.5 294.3,376 278.8,371.2 262.8,368.8 246.7,368.9 230.4,368.5 214.6,372.7 198.7,376.4 184.1,383.9 170.6,393.2 
	159.9,405.6 149.2,417.5 137.4,428.9 131.9,444.3 124.1,458.6 120.9,474.5 116.4,490.4 "/>
<polyline class="st0" points="115.2,500 115.5,483.5 122.2,468.2 123.4,451.6 130.1,436.5 141,424 151.6,411.8 163.1,400.6 
	173.9,387.9 188.6,380.4 204.3,375.9 218.9,368 235.3,366.1 251.7,365.9 267.8,368.4 284.5,368.4 299.1,376.2 315.3,380.4 
	326.3,393.4 338.6,403.6 351.8,413.2 363,425.3 369.4,440.5 375.1,455.7 379.9,471.1 384.1,487 "/>
<polyline class="st0" points="383.5,500 385.8,483.5 381.3,467.7 375.2,452.5 370.5,436.8 362.8,422.2 350.6,410.9 338.9,399.7 
	326.4,389.4 314.4,377.3 298,373.6 282.9,366.6 266.3,366.5 250.1,364.4 233.6,364.2 217.2,366.8 202.1,373.6 186.8,379.5 
	172.1,387 161.2,399.7 149.6,411 139.1,423.3 128.6,436.2 121.8,451.3 120.5,468 113.8,483.4 113.4,499.9 "/>
<polyline class="st0" points="111.7,500 112.1,483.4 118.8,467.9 120.1,451.2 127.1,436.2 136.9,422.8 147.8,410.6 159.2,399 
	170.3,386.5 184.8,378.4 199.8,371.7 215.4,365.9 231.6,362.8 248.2,363 264.5,364.1 280.8,366.1 296.4,371.3 312.9,375 326,385.5 
	338,396.6 350.3,407.4 362.4,418.8 371.3,432.8 375.3,449.1 382.7,463.8 386.4,479.9 387,496.4 "/>
<polyline class="st0" points="386.9,500 389.2,483.4 384.5,467.4 378.9,452 373.2,436.6 366.4,421.4 354.8,409.4 341.9,399.2 
	329.2,389.1 317.9,376.1 301.7,371.5 286.8,363.8 270.1,362.5 253.6,360.4 237.2,361.8 220.3,361.9 205.8,371.2 189.3,374.1 
	174.4,381.6 162.6,393.4 151.1,405 140.3,417.2 128.9,429.5 122.8,444.9 116.8,460.3 111.7,476.1 109.5,492.6 "/>
<polyline class="st0" points="108.3,500 108.6,483.3 115.4,467.7 116.9,450.9 124.7,436.1 133,421.8 144,409.4 155.5,397.7 
	167,385.7 180.6,376 195.6,368.5 211.9,364.8 227.9,360.2 244.6,360.3 261.2,358.6 277.6,361.5 293.6,366 309.3,371.4 323.5,380.1 
	336.6,390.2 347.9,402.2 361.2,412.4 372.4,425 376.7,441.7 383.3,456.8 386.7,472.9 391.5,488.9 "/>
<polyline class="st0" points="390.3,500 392.5,483.3 387.9,467.2 382.6,451.5 376.7,436.1 370.1,420.6 358.8,408.2 345.3,398.3 
	333,387.6 321.4,375.1 305.7,369.1 290.6,361.8 274,359.1 257.4,356.8 240.8,359.1 223.8,357.6 208.8,366.3 192,368.6 177.2,376.4 
	163.1,385.5 152.6,398.8 141.4,410.8 129.6,422.7 123.2,438.1 114.8,452.6 112.7,469.2 106.4,485 "/>
<polyline class="st0" points="104.9,500 105.1,483.1 112,467.4 113.6,450.6 121.8,436 129.2,421 140.7,408.9 151.8,396.6 
	162.8,383.8 176.9,374.6 191.7,366.6 208.5,364.2 223.7,355.8 240.8,357.3 257.4,355 274,357.4 290.7,359.9 305.9,367.4 321.8,373 
	333.2,386 345.8,396.4 359.3,406.3 370.7,418.7 377.8,434 383.3,449.6 389.7,465 394,481.2 393.1,498 "/>
<polyline class="st0" points="393.9,500 396.1,483.1 391.6,466.9 386.2,451.1 380.5,435.4 374.1,419.7 362.8,407.1 349.2,397 
	337.6,385.2 325,374 310,366.4 294.3,360.5 278,356.1 261.4,353.4 244.6,355.1 227.8,355 211.4,359 195.2,363.5 180,370.8 
	165.4,379.4 154.1,392 142.4,403.8 131.7,416.5 120,429 113.8,444.8 111.5,461.6 104,477.1 102.4,494 "/>
<polyline class="st0" points="101.2,500 101.4,483 108.2,467.1 109.9,450.2 118.4,435.5 124.8,419.9 136.9,407.9 147.9,395.5 
	158.9,382.5 172.7,372.7 187.7,365 204.8,362.6 219.5,352.8 236.7,353.2 253.5,351.6 270.1,354.3 287.3,354.6 302.6,362.4 
	319.5,366.2 332.5,377.5 345,388.7 357.5,399.8 370.2,411.2 379.8,425.2 383.3,442.2 390.9,457.2 394.7,473.5 398.8,490 "/>
<polyline class="st0" points="397.8,500 400,483 395.6,466.5 390.3,450.6 384.7,434.7 378.7,418.5 366.8,406.1 353.7,395.3 
	342.3,383 329,372.6 314.7,363.2 298.4,358.3 282.1,353.8 265.4,351.4 248.6,350.2 231.6,350 214.7,352.6 199.6,361 183,365.1 
	167.9,373 155.7,385 143.8,396.8 132.9,409.4 120.6,421.5 115.6,437.9 107.3,452.8 104.4,469.5 98.7,485.8 "/>
<polyline class="st0" points="96.9,500 97,482.8 103.7,466.7 105.6,449.6 114.3,434.8 120.3,418.8 132.4,406.5 143.6,394 
	155.2,381.8 168,370.3 183.2,362.5 200.2,359.2 215.2,350.2 232.2,347.8 249.3,348 266.2,349.5 283.1,351.7 299.4,356.4 
	315.9,361.3 330.1,370.8 343.5,381.2 355,393.6 368.2,404.4 380,417 386.3,433.1 392,449.1 397.4,465.1 402.1,481.6 400.5,498.7 "/>
<polyline class="st0" points="402.3,500 404.4,482.8 400,466.2 395.1,449.9 389,434 383.6,417.2 372.3,404 358.7,393.3 347.1,380.8 
	333.5,370.4 320,359.3 302.9,355.5 287.1,348.5 269.7,348.1 252.8,345.1 235.7,346.5 218.3,346.5 203.3,356.4 185.9,358.6 
	170.6,366.4 156.2,375.8 144.9,388.9 133.2,401.3 121.8,414 112,428.1 104.5,443.7 103.2,461.2 95.3,477 94.1,494.3 "/>
<polyline class="st0" points="92.4,500 92.4,482.6 98.8,466.2 101.1,449.1 109.7,434 115.4,417.5 127.7,405.2 138.8,392.3 
	151,380.4 163.2,368 178.6,360 194.8,354 210.6,347.1 227.7,343.9 245,344.6 262.3,342.7 279.4,345.3 296.3,349.2 312.1,356.1 
	328.3,362.5 340.2,375.6 353.6,385.9 366.5,397.1 379.3,409 388.3,423.8 392.5,440.8 400.3,456.1 403.7,473 407.5,489.9 "/>
<polyline class="st0" points="406.8,500 408.9,482.6 404.3,465.8 400,449.2 393.1,433.4 388.3,416.2 377.4,402.4 364,391.1 
	351.6,379.2 338.4,368.1 325,356.6 307.5,352.8 292,344.7 274.5,343 257.3,340.4 240.1,342.5 222.5,341.6 206.1,347.9 189.1,351.7 
	173.5,359.5 158.4,368.3 146.9,381.6 134.9,393.8 123.6,406.6 111.8,419.5 105.7,435.8 98.6,451.5 95.2,468.5 89.8,485.2 "/>
<polyline class="st0" points="88,500 87.9,482.4 94.1,465.8 96.9,448.6 105.4,433.4 110.5,416.5 122.9,403.9 134.3,391 146.4,378.8 
	158.2,365.7 173.7,357.5 189.3,349.6 206.2,345.3 222.9,339.7 240.4,339.9 257.8,338.2 275,340.9 292.5,342.6 308.2,350.8 
	325.7,354.6 339.3,366 352.7,377 364.8,389.3 378.5,400.4 389.6,414.2 395,431.1 401.1,447.3 406.4,463.8 411,480.7 409.8,498.1 "/>
<polyline class="st0" points="411,500 413.1,482.5 408.4,465.6 404.4,448.7 397.2,432.9 392.5,415.6 382,401.4 368.9,389.5 356,378 
	342.3,367.5 329.5,355 312.5,349.8 296.7,342.1 279.4,338.7 262.1,336.2 244.6,338 227,337.4 209.7,340.4 193.9,348.4 177.1,353.2 
	161.5,361.3 148.4,373.1 136.3,385.5 124.9,398.5 112.8,411.1 104.9,426.6 96,441.8 94.5,459.6 86.6,475.8 85.3,493.4 "/>
<polyline class="st0" points="83.9,500 83.8,482.3 89.8,465.5 92.7,448.3 100.8,432.7 106.5,416 118.4,402.9 129.9,390 141.8,377.4 
	153.8,364.5 168.5,354.7 184.2,346.6 202.1,344.7 217.8,335.5 235.6,336.2 253.1,334.3 270.4,337.2 287.8,338.8 304.4,344.4 
	321.3,349.5 336,359.1 349.6,370 361.9,382.3 375.8,393 387.6,406.1 396.6,421.2 401,438.5 408.8,454.2 412.1,471.4 416,488.5 "/>
<polyline class="st0" points="415,500 417.1,482.4 412.4,465.4 408.4,448.4 400.9,432.6 396.4,415.2 386.2,400.7 373.2,388.7 
	360.3,377 346.3,366.9 333.9,353.8 317.7,346.8 301.3,340.7 284.3,336.3 266.9,334.2 249.4,332.9 231.8,333.1 214.1,334.5 
	198.7,344.3 180.9,346.8 165.2,354.8 150.7,364.8 138.5,377.5 126.3,389.8 115.4,403.4 103.5,416.6 97.3,433.1 90.6,449.4 
	87.2,466.5 81.6,483.5 "/>
<polyline class="st0" points="79.9,500 79.8,482.2 85.7,465.3 88.8,448 95.9,431.9 102,415.3 114,402.1 124.8,388.5 137.1,376.1 
	149.2,363.3 163.8,353.3 179.6,345.3 197.2,342.5 212.8,333 230.4,330.9 248.1,331.1 265.7,331.5 283.1,333.6 300.4,337.6 
	316.6,344.5 333.3,350.6 346,363.4 360.1,373.6 373,385.3 386.4,397.1 397.2,411.3 402.4,428.5 408.8,444.8 414.1,461.5 
	418.8,478.5 418.6,496.2 "/>
<polyline class="st0" points="419,500 421,482.3 416.2,465.3 412.5,448.1 404.5,432.5 400.2,415 390.7,400 377.8,387.7 364.1,376.7 
	351.5,364.8 338.2,353.1 323.1,343.9 306.2,338.7 289.5,332.9 271.9,331.5 254.5,328.3 236.9,330.6 219,329.3 202.4,336.3 
	185.1,340.2 169.4,348.5 153.6,356.6 141.4,369.6 128.8,381.8 117.3,394.9 104.9,407.6 97.8,423.8 88.5,439 87,457 79.1,473.3 
	77.5,491 "/>
<polyline class="st0" points="75.9,500 75.7,482.2 81.4,465.1 84.8,447.8 91.3,431.4 97.2,414.6 109.1,401.1 120.2,387.5 
	132.2,374.8 144,361.4 158.8,351.5 174.5,343.3 191.9,339.2 207.6,330.5 225.2,327.5 242.9,327.8 260.6,326.1 278.1,328.8 
	295.9,330.9 311.9,339 329.5,343.2 343.5,354.5 357.4,365.2 369.2,378.3 383.2,389.2 394.9,402.6 403.9,418 408.3,435.3 416,451.2 
	419.4,468.5 423.8,485.7 "/>
<polyline class="st0" points="423.3,500 425.3,482.2 420.5,465.1 416.8,447.9 409,432 404.6,414.5 395.3,399.3 383.2,386.2 
	369.3,375.2 357.2,362.4 343.2,351.5 329.1,340.4 311.5,336 295.2,328.4 277.4,326.7 259.8,323.8 242.1,325.4 224.3,325.6 
	206.7,328.5 190.9,337.1 173.5,341.3 157.7,349.5 142.9,359.4 131,372.9 119,385.6 107.8,399.2 96.1,412.8 89.9,429.6 82.9,445.8 
	79.8,463.3 73.9,480.3 73.8,498.1 "/>
<polyline class="st0" points="71.2,500 71.1,482 76.5,464.8 80,447.4 86.1,430.7 92,413.7 103.6,399.8 115.2,386.5 127.4,373.8 
	139.7,361 153.1,349.1 169.1,341 185.5,334 202.5,328.7 219.5,322.9 237.5,324 255.2,321.6 272.8,324.8 290.5,326.5 307.5,331.9 
	324.4,337.6 340.4,345.5 352.9,358.6 367.3,368.7 380.5,380.5 393.9,392.6 404.8,406.9 410.2,424.3 416.4,440.9 422.3,457.6 
	426.9,474.8 428,492.6 "/>
<polyline class="st0" points="428.5,500 430.5,482.1 425.7,464.7 422.1,447.3 414.4,431.2 410.1,413.6 400.8,398.1 389,384.5 
	375,373.3 363.1,360 349.1,349 335,337.3 317.2,332.9 301,325 283.3,321.6 265.5,319.2 247.6,319.7 229.6,319.5 211.6,321.2 
	195.8,331.2 177.4,332.9 161.4,341 146,350.5 133.8,363.8 121.1,376.2 109.4,389.5 96.9,402.5 89.3,418.7 80,434.2 78.1,452.4 
	70.7,469 68,486.9 "/>
<polyline class="st0" points="65.2,500 65,481.8 70.3,464.3 73.9,446.6 79.5,429.5 86.1,412.6 97,397.9 109.2,384.7 121.2,371.5 
	134,359 146.7,345.9 162.8,337.4 178.7,328.7 196.9,326.2 213.3,317.4 231.6,316.8 249.6,316.2 267.6,317.1 285.5,319 303.3,322.6 
	319.7,330.4 337.5,335 351.7,346.7 365.8,358 377.8,371.3 391.9,382.7 403.6,396.5 413,412.1 417.4,429.9 425.1,446.1 428.8,463.6 
	433.7,481.1 432,499.2 "/>
<polyline class="st0" points="435.8,500 437.8,481.7 433.1,464 429.6,446.2 421.9,429.7 416.9,412 408.4,395.8 396.1,382 
	382.6,369.8 370.1,356.7 355.7,345.6 341.7,333.5 324.3,327.3 307.3,320.7 289.5,316.5 271.5,314.4 253.4,311.6 235.3,313.8 
	216.7,312.8 199.4,319.2 182,324.6 165.1,331.6 148.8,340 134.2,351.2 121.8,364.6 109.3,377.7 97.9,391.8 85.9,405.7 80.2,423.2 
	71.5,439.4 69.4,457.6 61.9,474.8 60.6,493.1 "/>
<polyline class="st0" points="55.8,500 55.6,481.3 60.6,463.2 64.9,445.1 69.8,427.1 77.5,410.1 87.7,394.5 100.3,380.8 112.4,367 
	125.6,354.1 138.4,340.4 154.2,330.5 171.1,322.4 189.8,319.6 206.3,310 224.8,307.3 243.5,307.9 262,306.1 280.5,309 299.1,310.8 
	316.1,318.9 334.1,324.2 349.8,334.4 363.7,346.8 378.1,358.1 392,370.2 405.9,382.9 417.4,397.8 423.7,415.6 429.8,433.1 
	436.8,450.3 440.6,468.4 444.1,486.8 "/>
<polyline class="st0" points="449.4,500 451.5,480.8 446.8,462.1 443.2,443.4 435.5,425.9 428.8,408 421.4,390.1 409.4,374.9 
	395.2,361.9 381.1,349.1 365.5,338.2 351.7,324.5 334.4,316.1 316.1,310 298.3,302.7 279.1,300.6 260.1,297.8 240.9,299.4 
	221.7,299.4 202.6,302.4 185.5,312.1 166.4,315.6 149.2,324.1 133,334.5 119.7,348.5 106,361.7 93.5,376 80.6,390.2 70.2,406.4 
	62.3,424 56.9,442.4 52.8,461.1 47.5,479.8 47.5,499.1 "/>
<polyline class="st0" points="30,500 29.9,479.2 34.9,459.1 40.5,439.3 44.8,418.9 54.9,400.8 64.1,382.3 78.2,367.1 91.7,351.8 
	106,337.1 120.6,322.6 137.6,310.8 156,301.4 176.1,296.1 194.7,286.9 215,282.8 235.7,282.7 256.2,280.4 276.6,283.7 297,286.3 
	317,291.2 336.2,298.6 355.9,305.5 372.2,318.5 388.5,331.1 402.4,346.2 418.2,359.6 431.7,375.2 442.6,392.9 448.3,413 
	457.6,431.3 463,451.1 468.2,471.2 469.1,491.8 "/>
<polyline class="st0" points="384.9,500 387.4,487.2 383.7,474.8 381.9,462.2 376.2,450.7 372,438.7 368.5,426 360.2,415.9 
	350.1,407.7 340.3,399.7 330.4,392 321.2,383.1 311.1,374.7 298.2,372.1 286.8,365.9 273.9,364.5 261.2,362.4 248.4,363.2 
	235.6,363.2 222.6,363.3 211.1,370.1 198.2,371.9 186.9,377.8 175.3,383.4 165.4,391.8 156.9,401.3 148.2,410.5 140.6,420.5 
	131,429.4 127.6,442 120.3,452.8 119.8,465.9 113,477.5 111.4,490.3 "/>
<polyline class="st0" points="125.2,500 124.7,488.4 128.2,477.3 132.4,466.7 132.9,454.8 140,445.5 143.7,434.4 152.3,426.5 
	159.9,418.2 167.3,409.8 174.3,400.4 183.8,393.9 194.1,388.7 204.6,384.2 215.8,381.6 226.2,376 238,376.7 249.4,376.2 
	260.8,375.9 272.2,377.4 283.7,378.7 293.8,384.7 305.6,386.5 314.4,394.3 322.5,402.6 331.4,409.3 340.2,416.4 349.5,423.6 
	356.8,432.6 359.9,444.1 363.5,454.8 368.6,465 370.2,476.3 374,487.2 372.5,498.7 "/>
<polyline class="st0" points="364.5,500 367.2,489.3 364,479 362.7,468.4 357.4,459 354.6,448.8 352.1,437.9 345,429.6 336.1,423.1 
	327.5,417 320.9,408.6 312.7,401.9 304.9,393.9 293.8,392.4 284.3,387.2 273.7,385.6 263.1,385.1 252.6,382.8 242.1,385 
	231.2,383.9 220.7,385.8 211.7,392.6 200.7,393.4 191,398.1 182,403.8 175.3,412.5 167.8,419.8 161,427.8 153.1,435 145.7,443.1 
	143.3,453.8 138.8,463.5 138.5,474.3 132.5,484 131.7,494.8 "/>
<polyline class="st0" points="137.4,500 136.8,489.8 139.8,479.9 144.5,470.8 144.1,460.1 150.8,452 152.9,441.7 161.2,435.2 
	167.2,427.2 174.1,420.2 180.9,412.7 188.1,405.5 197.3,401 205.9,395.5 217,396.8 225.3,389.1 235.5,388.2 245.7,389.4 
	255.8,387.5 265.7,389.8 275.7,390.8 285.3,394 294.8,397.5 304.8,400.1 312.2,407.5 320,413.8 325.8,422.1 334.6,427.5 
	342.2,434.4 348.4,442.6 350.4,453 353.8,462.3 357.9,471.5 359.8,481.4 362.6,491.2 "/>
<polyline class="st0" points="355.7,500 358.4,490.3 355.4,481 354.2,471.5 349.7,462.9 346.9,453.7 344.9,443.8 338.6,436.2 
	331.2,429.8 322.9,424.6 317.3,416.7 310,410.5 302.9,403.5 293.3,401 284.2,397.8 275.2,394.4 265.5,393.4 256.1,391.3 
	246.4,393.4 236.7,391.9 226.9,392.4 218.9,399.7 208.5,398.9 200.1,403.9 191.2,407.9 183.5,413.8 177.8,421.9 171.6,429.1 
	165.3,436.1 157.7,442.5 154.2,451.6 148.5,459.6 146.8,469.2 145.2,478.7 141.1,487.8 141.3,497.6 "/>
<polyline class="st0" points="144.4,500 143.9,490.6 146.2,481.5 151.5,473.3 150.7,463.5 156.8,456 158.7,446.7 165.6,440.1 
	171.3,433.1 177.8,426.7 184.3,420.3 189.9,412.4 197.9,407.6 206.5,403.9 216.4,404 223.9,397.3 233.1,395.7 242.5,397 251.6,395 
	260.8,396.5 270.1,396.7 279.4,397.7 287.4,403.1 297.2,403.8 304.1,410.5 310.1,418 318,422.5 324.8,428.6 331.8,434.7 
	338.5,441.3 343,449.5 343.6,459.4 348.9,467.1 351.2,476 354.1,484.8 355.5,494 "/>
<polyline class="st0" points="349.8,500 352.6,491 349.8,482.4 348.5,473.6 344.7,465.6 341.5,457.4 340,448.1 334.7,440.8 
	328.1,434.6 320.5,429.7 314.9,422.8 307.3,418.4 301.7,410.7 293.7,406.6 284.9,404.7 277.1,399.6 268,399 259.1,398.1 
	250.2,398.1 241.4,399.3 232.2,397.7 223.7,400.8 216.2,406.3 206.9,406.8 198.7,410.5 190.9,415.1 185.6,422.8 179.4,429 
	173.3,435.2 167.6,441.9 161,448.1 159.2,457.2 153.2,464.3 154.1,473.9 149.2,481.8 146.5,490.5 147.1,499.5 "/>
<polyline class="st0" points="149.4,500 149,491.3 150.6,482.7 156.1,475.2 155.4,466 161.2,459.2 162.1,450 168.5,443.9 
	174.6,437.9 180.2,431.5 186.2,425.6 191.4,418.5 198.5,413.5 206.3,409.6 214.5,407.1 222.7,404.6 230.5,399.8 239.4,400.3 
	248,401 256.6,399.5 265.1,401.4 273.9,401.8 281.8,405.6 289.9,408.5 298.7,410.2 304.9,416.8 311.2,422.5 316.3,429.6 
	323.4,434.4 331.1,439.2 336.9,445.9 338.3,455 340.5,463.4 344.6,470.9 346.4,479.2 349.9,487.3 349.9,496 "/>
<polyline class="st0" points="345.5,500 348.4,491.6 345.8,483.5 344.4,475.3 340.9,467.8 337.6,460.3 336.4,451.6 332,444.4 
	325.9,438.5 319.2,433.3 313.3,427.7 306.1,423.7 300.9,416.8 294.9,410.2 285.9,409.9 278.6,405.2 270.2,404.5 261.9,404.2 
	253.7,401.6 245.4,403 237,402.1 228.5,402.7 221.8,409.6 212.5,408.3 205.3,412.6 197.7,416.2 190.8,421 186,428.3 180.5,434.3 
	175.1,440.4 168.6,445.9 162.5,452 161.3,460.8 157,468 157.5,476.8 151.8,484 151,492.5 "/>
<polyline class="st0" points="153.2,500 152.8,491.8 153.9,483.7 159.5,476.6 158.7,468 163.5,461.3 164.2,452.6 170.2,446.7 
	176.6,441.4 181.8,435.5 187.1,429.6 191.6,422.4 198.3,417.7 205.8,414.3 212.7,409.9 221.9,411.7 228.3,404.8 236.5,404 
	244.7,404.6 252.7,403.5 260.7,405.7 268.9,405.5 277.1,406.2 284,411 292.5,411.9 299.2,416.6 304,424 311.1,427.7 316.2,433.9 
	323.3,438.2 329.4,443.7 334.7,450.1 336.1,458.6 338,466.5 342.4,473.5 342.7,481.6 346.3,489.2 345.7,497.4 "/>
<polyline class="st0" points="342.2,500 345.1,492.1 342.9,484.4 341.4,476.7 338.4,469.5 334.2,462.8 333.9,454.2 330.2,447.2 
	325,441.1 318.5,436.4 311.8,432.2 306.7,426.3 301,420.9 295.7,414.2 287.3,413.3 280,410.5 272.8,406.8 264.7,406.8 257,404.8 
	249.1,405.8 241.3,406.3 233.1,404.9 225.6,408.1 219.2,413.6 210.7,413.2 203.4,416.4 196.5,420.4 191.4,426.8 186.1,432.5 
	180.9,438.2 176,444.2 169.4,449.1 165.2,455.9 162.6,463.4 160,470.8 160.5,479 154.6,485.9 154,493.9 "/>
<polyline class="st0" points="156.1,500 155.8,492.2 156.6,484.5 162.1,477.9 161.4,469.8 165.2,463 166.4,455.1 171.7,449.2 
	177.9,444.3 183,438.9 187.6,432.9 192.6,427 197.9,421.3 204.6,417.4 211.7,414.2 220.1,415 226.2,409.1 233.6,406.4 241.6,407.8 
	249.1,407.2 256.9,406.2 264.4,408.1 272.1,408.4 279.2,411.7 286.3,414.6 294.6,415.1 299.7,421.7 305.1,427.3 310.8,432.2 
	316.7,436.9 322.4,441.9 328.2,447.2 332.2,453.8 333.3,461.9 336.2,468.8 339.8,475.6 340.6,483.3 343.2,490.6 342.2,498.3 "/>
<polyline class="st0" points="339.5,500 342.5,492.5 340.5,485.2 338.7,478 336.5,470.9 331.9,464.8 331.9,456.6 329.1,449.5 
	324.3,443.5 317.4,439.6 311.1,435.5 307,429.1 301.2,424.6 296,418.8 289,415.9 281.5,414.4 275.1,409.7 267.5,409.3 259.9,409.7 
	252.6,407.7 245.1,408.7 237.6,408.1 229.9,408.4 223.8,414.5 215.9,414 209.1,417.2 202.3,420.5 196.2,424.9 191.7,431.2 
	186.6,436.4 181.2,441.4 176.9,447.4 170.2,451.8 168.9,459.6 163.7,465.4 162.3,472.9 162,480.5 157.2,487.2 156.8,494.8 "/>
<polyline class="st0" points="158.6,500 158.2,492.6 158.9,485.3 164.3,479 163.7,471.3 166.6,464.7 168.6,457.5 172.6,451.3 
	178.8,446.8 183.2,441.2 188.5,436.4 193.3,431.1 197.4,424.5 203.9,421 210.5,417.8 217.5,415.5 224.7,414.3 230.9,409.1 
	238.4,409.2 245.8,410.2 253.1,408.8 260.1,411.1 267.5,410.7 275,411 281.2,415.5 288.5,417 295.4,419.8 300.5,425.4 306,430 
	310,436.2 316.3,440.1 323,443.9 327.5,449.8 330.8,456.5 330.6,464.5 334.5,470.6 337.5,477.3 338.5,484.5 341,491.5 339.3,498.8 
	"/>
<polyline class="st0" points="337.2,500 340.2,492.8 338.4,485.9 336.2,479.1 334.4,472.3 330.2,466.5 329,459.3 328.3,451.5 
	323.2,446.2 317.2,441.9 310.9,438.3 306.8,432.5 300.3,429.5 296.1,423.2 291,417.6 283.1,417.6 276.9,414.1 269.8,413 
	262.9,411.7 255.9,409.8 248.8,411 241.7,411.3 234.4,410.1 227.5,412.2 221.9,418.2 213.8,416.6 207.9,420.8 201.2,423.5 
	195.4,427.8 191.7,434.4 186.9,439.4 182.4,444.7 177.3,449.6 171.9,454.5 170.9,462 165.1,467.2 164.5,474.5 163.9,481.6 
	159.7,488.1 159.2,495.3 "/>
<polyline class="st0" points="160.9,500 160.5,493 161,486 166.5,480 165.8,472.8 167.9,466.1 171.6,460.2 173.6,453.4 179.9,449.3 
	183.8,443.8 188.8,439.1 193.6,434.4 197.6,428.4 203,424 209.4,421.1 215.2,417.1 223.3,419.3 228.6,412.8 235.5,411.8 242.6,413 
	249.4,411.9 256.4,410.9 263.2,412.7 270,413.8 276.8,415.5 282.9,418.7 290.6,418.6 295.5,424.2 299.6,430.4 306.1,433.1 
	309.8,439 316,442.5 322.1,446.5 327,451.7 328.4,459 328.8,466.3 333.2,471.9 335.5,478.4 336.6,485.2 338.9,491.9 337,498.9 "/>
<polyline class="st0" points="335,500 338.1,493.2 336.4,486.5 334.2,480.1 332.5,473.7 328.7,468 327.5,461.3 327,453.8 
	322.2,448.7 316.9,444.2 311,440.5 306.5,435.7 301.1,431.9 296.6,426.7 292.3,420.6 285,420 278.5,418 272.7,413.8 265.8,413.5 
	258.9,413.9 252.3,412.3 245.6,413.3 238.7,412.6 231.7,412.4 225.9,417 219.6,419.2 212.8,420.4 206.4,423 200.5,426.4 
	196.1,431.9 191.8,437.1 187.8,442.4 183.2,447.1 177.8,451.4 172.9,456.3 172.6,463.7 167.1,468.7 167.1,475.8 165.8,482.4 
	161.9,488.6 161.4,495.4 "/>
<polyline class="st0" points="163.1,500 162.6,493.3 163.2,486.6 168.6,481 167.9,474.2 169,467.5 173.9,462.5 174.9,455.6 
	180.3,451.3 185,446.8 189.2,441.9 193.5,437.2 196.8,430.9 202.2,427 207.9,423.5 214,420.9 221.1,421 226.7,417.4 232.6,413.3 
	239.4,413.5 246.1,414.7 252.6,413.4 259.1,415.2 265.8,414.6 272.6,414.9 278.2,419.1 284.5,421 291.7,421.5 295.9,427.5 
	300,432.9 305.5,436.3 309.8,441.1 315.6,444.5 320.8,448.9 325.8,453.6 326.1,461.1 327.1,467.7 331.2,473 333.2,479.3 
	334.5,485.7 336.6,492 335,498.7 "/>
<polyline class="st0" points="332.7,500 335.9,493.5 334.3,487.2 332.2,481.1 330.4,475 327.4,469.4 326.2,463.1 325.2,456.3 
	321.1,451.1 316,446.9 311.2,442.7 305.4,439.7 302,434.1 297.3,429.8 292.7,424.9 286.9,422.1 280.2,421.5 274.8,417.4 
	268.1,417.4 261.9,416.4 255.6,414.3 249.2,415.3 242.9,416.4 236.3,415.3 229.8,415.9 225.1,422.4 217.6,420.2 211.9,423.4 
	206.1,426.2 200.5,429.4 196.9,435.3 192.6,439.9 188.4,444.5 184.4,449.3 179,453.2 174.1,457.8 174.6,465.2 169.2,469.9 
	169.5,476.7 168.1,482.8 164.1,488.7 163.6,495.2 "/>
<polyline class="st0" points="165.3,500 164.8,493.7 165.2,487.3 170.2,481.9 169.8,475.4 170.4,469 175.9,464.6 176.1,457.7 
	180.7,453.2 185.7,449.2 190,444.9 193.6,439.9 197.9,435.5 201.4,429.8 207.1,427 212.8,424.2 218.3,421.3 225.6,423.3 
	230.2,416.9 236.5,416.4 242.9,417.4 249.1,416.5 255.4,415.4 261.4,417.9 267.5,418.3 274.1,418.1 279.4,422 285.7,423.1 
	291.7,425.2 296.1,430 300.4,434.7 304.6,439.1 309.4,443 314.7,446.5 319.5,450.8 324.1,455.4 324.2,462.5 325.1,468.8 
	329.1,473.9 331,479.7 332,485.9 334.2,491.9 333.2,498.1 "/>
<polyline class="st0" points="330.5,500 333.7,493.9 332.3,487.9 330,482.1 328.6,476.3 325.6,471 324.1,465.1 323.3,458.7 
	320.1,453.4 316.5,448.4 310.6,445.5 305.2,442.4 302.2,436.9 296.4,434.8 292.8,429.4 288.7,424.1 282,424.1 276.4,421.8 
	271.1,417.8 264.8,418 258.6,418.4 252.7,416.7 246.6,418.3 240.4,416.8 234.1,416.4 228.5,419.6 223.8,424.6 216.6,422.6 
	211.5,426.3 205.9,428.8 201.1,432.7 197.6,437.9 193.5,442.2 189.1,446.2 185.6,451 180.5,454.8 175.7,459.1 176.6,466.3 
	171.3,470.6 171.4,477.1 170.4,483 166.1,488.4 165.7,494.6 "/>
<polyline class="st0" points="167.4,500 166.7,494 167.1,487.9 171.7,482.7 171.8,476.8 172.2,470.6 177.6,466.5 176.8,459.4 
	181.4,455.2 186.4,451.6 189.8,446.9 194.1,443 198.1,438.9 201.5,433.6 206.1,429.8 211.6,427.5 216.6,424.1 223.5,425.6 
	228.2,421.3 233.5,417.6 239.7,417.9 245.7,418.7 251.6,417.8 257.5,418.5 263.4,419.1 269.4,419.5 274.9,421.9 280.2,424.7 
	286.8,424.5 291.6,428.3 295.6,433 300.2,436.7 303.2,442 308.6,444.7 313.4,448.3 318,452.3 322.4,456.7 322.4,463.5 323.2,469.5 
	327.1,474.3 329.1,479.8 329.7,485.7 332,491.3 331.6,497.3 "/>
<polyline class="st0" points="328.6,500 331.8,494.2 330.7,488.4 327.9,483.1 327.3,477.3 324.3,472.3 322.2,467.1 322,460.8 
	319.7,455.3 316,450.7 310.7,447.5 305.5,444.6 301.9,440.2 297.3,437 293.6,432.3 289.9,427.2 284,425.9 278.2,424.7 273.3,421.1 
	267.3,421.4 261.6,420.2 256,418.4 250.2,419.3 244.5,420.9 238.6,419 232.6,418.9 227.6,423.1 222.5,425.6 216.3,425.6 
	211.1,428.2 205.8,430.7 201.2,434.4 198.4,440.1 194.4,444 190.3,447.9 186.9,452.4 181.9,455.9 177.4,460 178.4,467 173.1,471 
	172.7,477 172.7,482.9 168.1,487.9 167.8,493.8 168.3,499.6 "/>
<polyline class="st0" points="169.2,500 168.4,494.3 168.8,488.5 173.1,483.5 174.3,478.1 173.9,472.1 178.3,467.8 177.9,461.3 
	181.6,456.9 187,453.8 190.1,449.3 194.2,445.5 197.9,441.5 200.5,435.8 205,432.2 209.9,429.3 215.2,427.3 220.5,425.1 
	226.9,426.8 231,420.7 236.7,419.9 242.5,420.6 248.1,421.1 253.7,419.3 259.2,421.7 265,420.6 270.9,420.7 275.6,424.5 
	280.8,426.6 287.2,426.4 291.2,431 294.7,435.9 299.8,438.4 302.3,443.8 307.7,446.1 312.1,449.7 316.6,453.4 320.9,457.5 
	320.7,464.1 321.3,469.9 325,474.4 327.2,479.6 327.4,485.2 330.4,490.4 330.4,496.1 "/>
<polyline class="st0" points="327,500 330.2,494.4 329.3,488.9 326.2,483.9 326.4,478.2 323.2,473.5 320.3,469 320.6,462.8 
	319.6,456.9 315.3,453 310.9,449.4 306.3,446.2 301.5,443.5 298.5,438.7 294.2,435.4 290.6,430.9 286.5,426.7 280,427.4 275.1,425 
	270.4,421.3 264.7,421.3 259,422.4 253.7,420.1 248.2,421.8 242.7,421.5 237,420.8 231.5,421.4 227.4,427.1 221.3,426 216.1,427.8 
	210.8,429.7 206.1,432.7 201.5,435.9 199.2,441.8 195.4,445.4 191.4,449.1 188.1,453.4 183.4,456.7 179.1,460.6 179.8,467.1 
	174.7,470.9 174.3,476.6 175.3,482.5 170.1,487 169.3,492.6 170,498.2 "/>
<polyline class="st0" points="170.6,500 169.9,494.5 170.3,489 174.3,484.3 176.4,479.4 175.4,473.5 178.4,468.9 179.5,463.4 
	181.8,458.5 186.9,455.4 190.8,451.8 194.3,448 197.4,443.6 201.1,439.9 204.1,434.9 208.7,432.1 213.7,429.9 218.2,426.6 
	224.7,428.7 228.9,424.6 233.6,420.9 239.2,421.2 244.8,423.1 250.1,421.6 255.5,420.7 260.6,423.1 266,423.1 271.8,422.6 
	276.2,426.5 281.4,427.9 287.5,427.9 290.8,433.1 293.9,438 299.2,439.7 301.5,445 306.7,447.2 310.9,450.6 315.3,454 319.5,457.9 
	319.3,464.2 319.6,469.9 322.8,474.2 325.9,478.9 325.4,484.4 328.8,489.3 329.5,494.7 "/>
<polyline class="st0" points="325.6,500 328.8,494.7 328.1,489.4 324.8,484.7 325.3,479.2 322.4,474.7 319.2,470.4 318.8,465 
	319,458.7 315.1,454.9 310.8,451.5 306.7,448.1 301.8,445.8 299.3,440.9 294,439.5 291.3,434.2 288.1,429.1 282.4,428.6 
	277.2,427.5 272.7,424.1 267.3,424.2 262.1,423.1 257,422.1 251.7,421.7 246.5,423 241.1,421.7 235.6,421.1 230.6,423.2 
	226.9,429.2 220.6,426.8 215.9,429.3 210.9,431.2 206.4,434 202,437.1 200,442.9 196.3,446.4 192.5,449.9 189.4,454 184.9,457.1 
	181,460.9 181.3,467 176.5,470.6 175.8,476 176.8,481.6 172.9,486.1 170.9,491.2 170.6,496.5 "/>
<polyline class="st0" points="171.9,500 171.1,494.8 171.7,489.5 175.1,484.9 178,480.4 176.3,474.6 178.6,470 181.8,465.8 
	182.5,460.4 186.4,456.8 190.7,453.6 193.7,449.6 197.3,446.1 200.9,442.6 203.2,437.3 207.3,434.2 211.7,431.4 216.6,429.6 
	221.4,427.6 227.5,429.7 231,423.7 236,421.8 241.3,422.4 246.6,423.6 251.7,422.3 256.8,422.6 261.9,423.7 266.9,424.9 
	272.3,424.5 276.6,428 281.6,429.2 287.4,429.2 290.4,434.4 293.2,439.3 298.4,440.7 300.6,445.9 305.6,447.9 309.8,451 
	313.9,454.3 318,457.9 319.1,463.4 318.8,469.2 321.1,473.6 323.7,478.1 324.7,483.1 326.5,488 327.9,493 326.7,498.2 "/>
<polyline class="st0" points="324.5,500 327.7,494.9 327,489.9 323.8,485.3 324,480.2 322.1,475.6 318.6,471.6 318.5,466.3 
	318,460.8 314.9,456.7 312.1,452.5 307,450.2 302.5,447.6 299.5,443.6 295.9,440.3 292.6,436.5 289,432.6 285.2,428.9 279.2,429.7 
	274.7,427.7 270.5,424.1 265.2,424.4 260,425.2 255.2,422.5 250.2,423.4 245.2,424.6 240,423 234.8,422.5 230.2,425.3 226.5,430.2 
	220.3,427.8 216,430.6 211.3,432.5 206.8,435 202.8,438 200.9,443.6 197.3,447 193.6,450.2 190.9,454.3 186.5,457.3 182.9,460.9 
	182.3,466.3 179,470.3 176.9,474.9 178.5,480.5 175.8,484.9 172.2,489.4 171.7,494.5 172.4,499.7 "/>
<polyline class="st0" points="173,500 172.3,495 172.9,490 175.8,485.5 178.9,481.3 177.4,475.8 178.7,471 182.9,467.5 182.5,461.8 
	186.2,458.3 190.5,455.3 193.2,451.4 196.9,448.2 200.1,444.7 203,440.6 205.8,436.2 210.3,433.9 214.9,432 219,429.1 224.8,430.5 
	228.9,427.7 233.1,423.9 238.2,424.1 243.2,424.8 248.1,425.1 252.9,423.2 257.8,424.9 262.7,424.6 267.6,425.5 272.5,426.1 
	276.7,429.2 281.5,430.2 287,430.4 289.9,435.4 292.5,440.2 297.5,441.5 299.5,446.5 304.3,448.4 308.4,451.3 312.5,454.3 316,458 
	317.7,462.8 318.1,468.1 319.4,472.8 321.9,477 323.6,481.6 324.1,486.5 326.6,491.1 326.7,496 "/>
<polyline class="st0" points="323.3,500 326.5,495.1 325.9,490.3 323,486 323,481.1 321.2,476.6 318.4,472.7 317.7,467.8 
	317.1,462.7 315.2,458.1 312,454.4 307.9,451.6 303.8,448.8 299.1,446.9 297.3,442 292.3,440.8 289.8,436 287,431.2 281.8,430.7 
	276.8,430.2 272.7,427.3 268.3,425.2 263.4,425.1 258.4,426 253.8,423.7 249,424.9 244.3,426 239.3,424.2 234.2,423.8 230,427.1 
	226.4,431.3 220.4,428.8 216.4,431.6 211.8,433.5 207.6,435.9 203.7,438.8 201.9,444.1 198.5,447.4 195.3,450.8 192.3,454.3 
	188.7,457.5 184.1,460.2 182,464.6 181.6,469.8 178.1,473.5 177.8,478.5 178.6,483.6 173.8,487.5 172.9,492.3 173,497.2 "/>
<polyline class="st0" points="174.2,500 173.5,495.2 174.1,490.5 176.5,486.1 179.7,482.1 178.6,477 178.8,472 183.7,469 
	182.4,463.1 185.8,459.6 190.5,457.2 193.6,453.8 196.8,450.6 199.5,446.9 202.8,443.7 205.2,439.2 208.7,435.9 212.8,433.5 
	217.3,431.9 221.4,429.4 227.2,431.9 230.6,427.1 234.8,424.2 239.7,424.7 244.6,426.6 249.2,425.4 253.9,424.2 258.4,426.6 
	263.2,425.7 268,425.9 272.5,427.7 276.4,430.5 281.2,431.3 286.5,431.4 289.1,436.3 291.8,440.6 296.3,442.2 298.7,446.5 
	302.4,449.1 306.7,451.4 311.1,453.9 313.8,457.9 316.5,461.8 316.8,467 316.8,472 319.8,475.8 322.5,479.8 322.1,484.7 324.6,489 
	325.7,493.6 324.3,498.4 "/>
<polyline class="st0" points="322.1,500 325.3,495.4 324.8,490.8 322.1,486.6 321.9,482 320.2,477.8 317.7,473.9 316.3,469.6 
	316.5,464.4 315.6,459.5 311.9,456.4 307.9,453.6 304.2,450.8 299.8,449 297.4,445 293.9,442.2 291.2,438.3 287.9,434.8 
	284.5,431.3 279.2,431.8 274.8,430.5 271.1,427 266.2,427.7 261.7,426.6 257.2,426.4 252.7,425 248.1,426.8 243.6,426.8 
	238.9,425.8 234.1,425.1 230.1,428.5 226.7,432.5 220.9,429.9 217,432.7 212.6,434.3 208.8,436.8 205.1,439.6 203.1,444.4 
	199.9,447.6 197.2,451.1 194.1,454.2 191.1,457.5 186.4,459.9 183,463.3 184.3,469 179.6,472 179.1,476.7 180.6,481.8 177.7,485.8 
	174.6,489.9 174.1,494.6 175,499.2 "/>
<polyline class="st0" points="175.5,500 174.8,495.5 175.4,490.9 177.3,486.7 180.7,482.9 179.7,478.1 179.8,473.4 184.2,470.4 
	183.5,465.1 185.7,461.2 190.1,458.6 193.6,455.8 196,452.2 199.3,449.3 202.3,446.1 204.5,442 207.3,438.1 211.4,436.1 
	215.6,434.5 219.4,432.1 224.1,431.6 229,432.6 232,427.1 236.3,425.3 241,425.8 245.6,427.3 250,426.5 254.5,425.6 258.7,428.1 
	263.4,426.8 268,426.8 272.1,429 275.9,431.6 280.4,432.5 285.5,432.2 288,437 291.1,440.4 294.8,442.8 297.7,446.1 300.3,449.7 
	304.1,452 308.8,453.9 311.7,457.4 315.4,460.5 315.6,465.6 315.6,470.4 317.2,474.5 319.6,478.3 321,482.5 321.6,486.9 324.2,491 
	324.6,495.5 321.5,500 "/>
<polyline class="st0" points="320.7,500 323.9,495.6 323.5,491.2 321,487.2 320.2,483 319,478.9 316.9,475.1 314.5,471.5 
	314.4,466.9 314.8,461.6 311.5,458.5 309.1,454.8 304.7,452.7 300.8,450.5 297.3,448.1 295.4,443.8 290.7,443 288.7,438.4 
	286.1,434.1 281.7,432.9 277,432.9 273.1,430.9 269.5,427.7 264.8,428.5 260.5,428 256.3,426.6 251.9,426.6 247.6,428.3 
	243.3,427.7 238.8,427.3 234.2,426.6 230.5,429.9 227.3,433.8 221.7,431.2 218,433.7 213.8,435.2 210,437.4 206.9,440.6 
	204.6,444.6 201.5,447.6 198.8,450.8 195.5,453.6 193.1,457.1 189.3,459.6 186.1,462.8 185.5,467.4 183.5,471.2 180.6,474.8 
	180.3,479.2 181.4,483.9 176.9,487.4 175.8,491.7 175.6,496.1 "/>
<polyline class="st0" points="177,500 176.4,495.7 176.8,491.4 178.2,487.3 182.2,483.9 180.9,479.2 181.3,474.9 184.2,471.5 
	186.2,467.8 186.7,463.3 189.8,460.2 193.6,457.8 196.1,454.5 199.1,451.7 201.6,448.4 204.8,445.7 206.8,441.4 210,438.6 
	213.6,436.3 217.6,434.8 221.1,432.1 226.6,434.5 230,431.7 233.4,428.1 237.6,427.4 242,427.5 246.3,428.3 250.5,427.9 
	254.8,427.1 258.8,429.6 263.2,428.3 267.6,428.4 271.5,430.2 275.1,432.8 279.2,433.8 284.1,433.5 287.1,437.1 290.1,440.3 
	292.5,444 295.8,446.5 298,450.2 302.3,451.7 305.8,454.1 309.4,456.8 312.4,460 314,464 314.6,468.5 314.3,473.2 316.9,476.5 
	319.5,480.1 319.6,484.4 321.2,488.4 322.5,492.5 322.5,496.8 "/>
<polyline class="st0" points="319.1,500 322.1,495.9 321.8,491.7 319.6,487.9 318.8,483.9 318,479.9 315.8,476.4 313.2,473.1 
	313.5,468.6 313.2,464 311.4,460.3 308.6,457.1 305.1,454.6 301.6,452.2 297.4,450.8 295.3,447.2 292.2,444.7 289.7,441.3 
	286.8,438.2 284.2,434.3 279.3,434.6 275.2,434 271.6,431.8 268.1,428.9 263.7,429.5 259.4,430.5 255.6,427.9 251.4,428.3 
	247.4,429.9 243.3,429.2 239.1,428.9 234.7,428.1 231.2,431.2 228.2,435.3 223.1,433 219.4,435 215.6,436.6 211.9,438.5 
	208.3,440.6 206,444.4 203.7,448 201,450.9 198.1,453.6 195.8,456.9 192.7,459.6 188.8,461.9 185.6,464.9 187.1,470.2 183.1,472.9 
	182,477 183.6,481.6 181.7,485.3 177.9,488.8 177.2,492.9 177.1,497.1 "/>
<polyline class="st0" points="178.8,500 178.2,495.9 178.4,491.9 179.3,487.9 183.7,484.8 183.5,480.7 183,476.4 184.7,472.8 
	188.1,470 186.9,464.9 189.9,461.9 194,459.9 196.9,457.2 199.3,454.2 201.8,451.4 204.6,448.6 206.6,445 208.9,441.3 212.4,439.3 
	215.9,437.4 219.7,435.9 223.1,433.7 228.2,436.2 231.1,432.5 234.5,429.4 238.7,429.7 242.7,429.8 246.8,430.4 250.7,429.6 
	254.7,428.9 258.5,431.4 262.6,430.1 266.6,430.7 270.6,431.4 273.8,434.5 277.7,435.4 282.5,434.6 285.5,437.6 288.1,441.2 
	289.7,445.7 294.1,446.2 295.5,450.5 299.1,452.3 302.6,454.4 306.8,456.1 309.1,459.5 312.5,462.1 313,466.5 312.7,471.1 
	313.9,474.8 316.3,478.1 317.9,481.8 317.5,485.9 319.9,489.5 320.9,493.4 320.4,497.4 "/>
<polyline class="st0" points="317.1,500 320.1,496.1 319.8,492.2 318.1,488.6 316.9,484.9 316.9,481 314.6,477.7 312,474.6 
	312.1,470.5 311.9,466.3 311.2,462.1 307.9,459.5 305.3,456.6 301.2,455 297.9,452.9 294.9,450.8 293.3,446.8 288.9,446.4 
	287.4,442 285,438.5 282,435.6 277.4,436.4 273.6,435.5 270.5,432.6 266.8,431.2 262.9,431 258.7,432.5 255.2,429.9 251.2,430.3 
	247.4,431.8 243.6,431.3 239.6,430.7 235.5,429.9 232.1,432.4 229.6,437.3 224.9,435.2 221,436.1 217.7,438.2 214.1,439.6 
	210.5,441.2 207.5,443.8 206.2,448.3 203.4,450.8 201.1,453.8 198.3,456.3 196,459.3 192.5,461.5 189.3,464 187.5,467.5 
	188.3,472.1 183.9,474.5 183.9,478.6 185.5,483 183.1,486.3 179.5,489.6 179.1,493.5 179.2,497.5 "/>
<polyline class="st0" points="180.9,500 180.3,496.2 180.3,492.4 181,488.6 185,485.6 186.4,482.2 184.9,477.9 185.5,474.2 
	189.8,472 188.2,467 190.4,463.9 194.1,461.8 197.3,459.7 199.2,456.5 202.1,454.2 204.3,451.3 207.1,449 208.4,444.6 211.2,442.1 
	214.7,440.5 218.2,439.2 221.4,437.2 225.1,436.1 229.7,438.4 232.1,433.8 235.4,431 239.4,431.9 243.2,432 246.9,432.6 
	250.6,431.8 254.4,431 257.9,433.4 261.8,432.4 265.3,433.5 269.4,432.8 272.3,436 275.7,437.5 280,437.1 283.8,438.1 285.8,442.1 
	288,445.4 291.3,447 293.8,449.8 295.4,453.3 299.5,454.4 302.7,456.5 306.1,458.6 308.4,461.6 310.7,464.7 310.2,469.2 
	310.4,473.2 312,476.4 314.4,479.4 315.9,482.9 315.4,486.7 318,490 318.9,493.7 318.3,497.5 "/>
<polyline class="st0" points="314.9,500 317.8,496.4 317.5,492.8 316.3,489.3 314.5,486 314.8,482.2 313.2,479 310.9,476.1 
	309.7,472.8 309.5,468.9 309.8,464.6 307,462 305,458.9 301.5,457 298.5,455 294.5,454 292.9,450.6 290.6,447.9 287.3,446.4 
	285.2,443.1 283.3,439.2 279.8,438 275.6,438.6 272.3,437.2 269.4,434.3 265.7,434 262.2,433.3 258.3,434.7 255,432.1 251.3,432.5 
	247.8,434.1 244.2,434 240.5,432.6 236.6,431.9 233.2,433.6 231,438.7 227.2,438.5 222.8,437 219.8,439.4 216.3,440.5 213.1,442.3 
	210.5,444.9 208.5,448.2 206.4,451.1 204.1,453.8 201.8,456.4 199.6,459.1 197.2,461.7 193.4,463.4 190.8,466 190.7,470 
	189.1,473.2 185.9,475.8 186.1,479.7 187.5,483.8 185.2,486.9 181.7,489.9 181.3,493.6 181.3,497.3 "/>
<polyline class="st0" points="183.2,500 182.6,496.5 182.6,492.9 183.2,489.4 186.8,486.5 188.9,483.6 187.1,479.5 187.1,475.8 
	190.8,473.6 191.3,470 192.1,466.4 194.6,463.9 198.3,462.3 200.5,459.8 202.7,457.2 204.9,454.7 207.1,452.1 209.1,449.3 
	211.1,446.2 213.6,443.6 216.6,441.9 220,440.8 222.9,438.7 226.7,438.8 230.9,440.5 233,435.6 236,433.2 239.8,434.2 243.3,434.3 
	246.8,434.7 250.3,434.2 253.8,433.2 257.1,435.4 260.6,434.9 263.9,435.9 267.9,434.5 270.7,437.4 273.6,439.5 277.3,439.5 
	281.4,439.1 283.8,442.2 286.2,445 287.3,449.3 291.3,449.6 292.5,453.3 295.3,455.3 298.2,457.1 301.4,458.9 304.6,460.8 
	307.2,463.4 308.6,466.7 308.4,470.7 308,474.6 310.1,477.4 312.2,480.3 313.6,483.4 313.1,487.1 315.5,490.1 316.3,493.5 
	316.2,497 "/>
<polyline class="st0" points="312.5,500 315.3,496.6 315.1,493.3 314.1,490 312,487 312.4,483.6 311,480.5 308.9,477.8 306.9,475.1 
	307.4,471.3 307.5,467.4 306.4,464.1 303.9,461.7 301,459.6 297.8,458 294.9,456.2 291.8,454.9 290.9,451 287.6,449.9 286,446.6 
	283.4,444.4 281.7,440.5 277.9,440.4 274.1,440.6 271.1,439.3 268.5,436.3 265,436.6 261.7,435.7 258.1,437.1 255.1,434.5 
	251.7,434.8 248.4,436.5 245.1,436.8 241.6,434.9 238,434.1 234.8,435.5 232.1,438.6 229.7,441.7 225.2,438.9 222.3,440.8 
	219.4,442.6 216.2,443.7 213,445.1 210.6,447.4 209.5,451.5 207.1,453.6 205.1,456.2 202.6,458.3 200.8,461 198.3,463.3 
	194.7,464.8 192.4,467.4 193,471.5 191.2,474.3 188.2,476.7 188.4,480.3 189.9,484.2 187.9,487 184.3,489.8 183.8,493.1 
	183.8,496.6 184.4,500 "/>
<polyline class="st0" points="185.6,500 185,496.7 184.9,493.4 185.4,490.1 188.8,487.5 190.9,484.8 189.4,481 189.4,477.6 
	191.8,475.1 194.2,472.7 192.7,468.3 195.3,466 198.6,464.4 201.2,462.4 202.8,459.6 205.4,457.8 207.4,455.4 209.7,453.3 
	210.7,449.5 212.8,446.9 215.6,445.2 218.4,443.4 221.5,442.5 224.1,440.4 228.1,441.5 231.8,442.7 233.6,437.9 236.5,435.6 
	240,436.6 243.2,436.4 246.5,437 249.7,436.6 252.9,435.8 256.1,437.1 259.3,437.2 262.5,437.3 266.1,436.4 268.9,438.3 
	271.5,440.9 274.5,441.8 278.4,441.1 281.5,442.3 283.1,446.1 285.4,448.4 287.5,450.8 290.1,452.6 291.3,455.9 294.5,457.1 
	297.2,458.8 300.5,460.2 303,462.5 305.5,464.8 306.5,468 306.3,471.8 305.8,475.5 307.6,478.1 309.8,480.6 311.3,483.5 
	310.9,486.9 312.7,489.8 314,492.9 314.5,496.1 312,499.4 "/>
<polyline class="st0" points="310.1,500 312.8,496.9 312.7,493.8 312,490.7 309.6,488 310.3,484.8 308.9,482 307.4,479.3 
	305.2,476.9 305.8,473.4 305.9,469.8 305.6,466.3 302.7,464.4 301.1,461.6 297.9,460.2 295.2,458.5 291.8,457.6 290.3,454.9 
	288.7,452.1 284.9,452.1 284.1,448 282,445.4 280.2,442.2 276.4,442.7 273,442.8 270.2,441.5 267.9,438.6 264.6,438.7 261.6,438 
	258.2,439.4 255.4,437.2 252.2,437 249.1,438.1 246.1,439 242.9,437.2 239.8,437.5 236.4,437 233.8,439.4 232,443.9 228.3,442.4 
	224.6,441.5 222.1,443.6 219,444.5 216.4,446.2 213.6,447.7 211.3,449.9 210.6,453.9 208.2,455.8 206.4,458.2 204.2,460.2 
	202.5,462.7 200.2,464.7 196.8,466.1 194.6,468.5 195,472.2 193.9,475.1 190.4,477 190.5,480.4 192.2,484 190.9,486.8 187.3,489.2 
	186.6,492.3 186.1,495.4 186.9,498.6 "/>
<polyline class="st0" points="188,500 187.4,497 187.3,493.9 187.5,490.8 190.6,488.3 192.9,485.9 191.5,482.5 191.7,479.4 
	192.8,476.6 196.2,474.9 194.6,470.8 196.4,468.3 198.9,466.4 202.2,465 204.1,463 205.6,460.4 207.8,458.5 209.6,456.2 
	211.7,454.3 212.4,450.3 214.6,448.3 217.4,447.1 219.9,445.4 222.9,444.5 225.2,442.4 229,443.8 232.4,445 234.1,440.4 
	236.7,438.1 239.9,438.6 242.9,438.3 246,440.4 248.9,439.5 251.9,438.3 254.9,438.1 257.6,440.7 260.8,439.3 263.6,440.5 
	267,439.3 269.3,442.1 271.8,443.9 275,443.9 278.7,443.2 280.9,445.5 282.6,448.6 283.8,451.9 286.9,452.6 288.7,455 290.1,457.7 
	293.1,458.7 295.6,460.4 298.7,461.7 300.9,463.8 303.2,466 304.5,468.7 303.8,472.5 304.2,475.5 305.3,478.2 307.3,480.6 
	309,483.1 308.9,486.2 309.3,489.1 311.5,491.8 311.9,494.8 311.1,497.8 "/>
<polyline class="st0" points="307.7,500 310.4,497.1 310.4,494.2 310,491.4 307.6,488.9 307.5,486.1 307.3,483.2 305.7,480.7 
	303.9,478.5 303.2,475.7 302.8,472.8 303.5,469.2 302.1,466.6 300,464.5 297.9,462.4 294.9,461.2 292.5,459.6 289.4,458.8 
	288.2,456 286.5,453.7 283.2,453.5 282.3,449.9 280.6,447.1 278.8,444.4 275.3,444.9 272.1,445 269.6,443.8 267.4,441.1 
	264.6,440.4 261.5,440.6 258.6,440.9 255.8,440.7 253,439.3 250.1,440.2 247.3,440.9 244.5,440.6 241.5,439.7 238.4,438.9 
	235.6,440.2 233.5,443.2 231.5,446.1 227.6,443.6 224.9,444.7 222.5,446.3 219.6,447 217,448.4 214.8,450.3 213,452.6 212.1,456 
	209.9,457.6 208.1,459.9 206,461.7 204.5,464 202.6,466 199.4,467.3 197.3,469.4 195.9,471.9 197.4,475.7 193.5,477.2 192.8,480 
	192.7,483 194.1,486.2 191.8,488.6 188.8,491 188.5,493.9 188.6,496.8 189.2,499.8 "/>
<polyline class="st0" points="190.4,500 189.7,497.2 189.6,494.4 189.8,491.5 192.4,489.1 195.2,487 194.9,484.2 193.9,481 
	193.8,478 197.2,476.5 198.3,474 197.4,470.4 199.5,468.4 202.4,467.1 204.8,465.5 206.4,463.4 208.6,461.8 210,459.5 211.8,457.5 
	213.6,455.5 214.4,452.2 216.3,450 218.9,449 221.3,447.5 224,446.6 226.1,444.6 229.6,445.8 232.9,447.4 234.5,443.3 236.7,440.9 
	239.5,440.1 242.4,440.8 245.3,442.6 248,442.5 250.7,441.1 253.5,440.4 256.1,442.3 258.9,441.9 261.6,442 264.7,441.1 
	267.2,442.5 269.3,445 271.8,446.1 274.9,445.9 278.2,445.4 280,448.1 281.5,450.8 282.4,454.3 285.6,454.5 287.2,456.8 
	288.3,459.4 291.1,460.4 293.3,462 295.8,463.4 298.6,464.7 300.4,466.9 302.6,468.8 302.7,472 302.5,475.2 301.9,478.3 304,480.4 
	305.4,482.8 306.7,485.2 306.2,488.1 307.9,490.5 309.3,493.1 309.8,495.9 308.2,498.7 "/>
<polyline class="st0" points="305.4,500 307.9,497.4 308.2,494.7 308,492 305.7,489.7 305.5,487.1 305.7,484.4 304.1,482.1 
	302.1,480.1 300.4,478.1 301.4,474.8 301.5,471.8 301.5,468.6 298.8,467.1 297.4,464.8 294.6,463.6 291.9,462.5 289.7,461.2 
	287.1,460.2 286.3,457.4 284.6,455.4 281.8,455 280.8,451.8 279.4,449.1 277.7,446.5 274.4,447 271.5,447.3 269.1,446.2 
	267.1,443.8 264.7,442.2 261.7,443.5 259.1,443.2 256.4,443.9 253.9,441.6 251.3,442 248.6,443.5 246.1,444.1 243.3,441.8 
	240.7,442.3 237.8,441.4 235.4,443.1 233.8,447.2 231.6,448.3 227.7,445.5 225.5,447.1 223.3,448.6 220.7,449.4 218.2,450.4 
	216.2,452.2 214.4,454.2 213.7,457.5 211.6,459 210.2,461.2 208.1,462.8 207,465.1 205.1,466.9 202.2,468 199.6,469.5 197.7,471.5 
	199.6,475.4 197.6,477.3 194.8,479.1 195,482 196.7,485.2 196.1,487.6 193.1,489.6 191.2,492 190.9,494.7 190.9,497.4 "/>
<polyline class="st0" points="192.8,500 192.1,497.4 192.1,494.8 192.4,492.2 194.1,489.9 197,488 198.1,485.8 196.3,482.7 
	196,479.9 198.1,478 200.6,476.4 198.7,472.6 200.5,470.7 202.8,469.1 205.6,468.1 207.3,466.3 208.6,464.1 210.6,462.7 212.3,461 
	213.8,459.1 215.1,456.8 216.2,454.1 217.8,452 220.2,451 222.4,449.6 224.9,448.9 226.9,447.2 229.8,447.5 233.1,449.5 
	234.6,446.3 236.6,443.6 239,442.4 241.8,443.4 244.4,443.9 246.9,444.1 249.4,444 251.9,443 254.5,442.8 256.8,445.3 259.5,444.1 
	261.8,445.2 264.8,443.6 266.9,445.5 268.9,447.6 271.2,448.5 274.1,448 277.3,447.5 278.8,450.2 280.2,452.8 281.1,455.8 
	283.7,456.4 285.5,458 286.1,461 288.5,462 290.9,463 293.5,464.1 296.3,465.1 297.5,467.4 300.1,468.8 300.3,471.8 299.7,474.9 
	299.8,477.6 300.7,479.9 302.3,481.9 303.6,484.1 304.4,486.4 303.7,489.1 305.9,491.2 306.9,493.7 307.4,496.2 305.7,498.8 "/>
<polyline class="st0" points="302.9,500 305.4,497.6 305.9,495.1 305.6,492.7 303.6,490.6 302.9,488.3 303.2,485.8 301.9,483.7 
	300.6,481.6 298.7,479.9 299,477.2 298.8,474.7 299.3,471.5 298.3,469.2 296.3,467.7 294.9,465.6 292.2,464.7 289.9,463.5 
	287.3,462.8 285.2,461.7 284.8,458.7 282.7,457.4 280.4,456.7 279.5,453.8 278.2,451.3 276.8,448.6 273.8,449.1 271,449.6 
	268.7,448.8 266.8,447.1 264.9,444.9 262,446.5 259.8,445.2 257.1,446.6 254.9,444.7 252.5,444.2 250.1,445 247.7,445.9 245.4,446 
	242.8,444.4 240.2,443.8 237.8,444.2 235.7,446.1 234.5,450.4 232.1,450.4 228.5,447.7 226.5,449.3 224.5,450.7 222,451.2 
	219.8,452.3 217.7,453.6 215.8,455.2 215.7,458.8 214,460.5 212.5,462.3 211.2,464.3 209.1,465.5 207.9,467.5 205.9,468.9 
	203.1,469.9 201.5,471.8 199.9,473.7 201.6,477.2 198.8,478.6 197.3,480.6 197.5,483.2 199.3,486.2 198.1,488.3 195.2,490.1 
	193.6,492.4 193.2,494.8 193.3,497.3 194,499.8 "/>
<polyline class="st0" points="195.3,500 194.5,497.6 194.7,495.3 195,492.9 195.6,490.6 198.7,488.9 200.4,487 198.4,484.2 
	198.6,481.8 199.1,479.5 202.6,478.5 202.4,475.9 201.6,472.8 203.4,471.2 205.7,469.9 208.1,468.9 209.8,467.4 210.8,465.3 
	212.6,464 214.1,462.3 215.8,460.9 216.7,458.5 217.8,456.1 219.1,454 221.4,453.2 223.3,451.8 225.6,451.2 227.6,450 229.8,449.2 
	233.2,452 235,450.1 236.3,446.6 238.4,445 240.9,445.6 243.3,445.5 245.8,447.5 248,447.2 250.3,446.2 252.6,445.4 254.9,446.1 
	257,447.8 259.5,446.5 261.6,447.7 264.4,446.1 266.3,448 268,449.9 270.2,450.7 272.8,450.4 275.7,449.8 277.3,451.8 278.5,454.5 
	279.9,456.4 281.1,458.6 283.7,458.9 284.6,461.2 285.4,463.6 288.3,463.8 290.2,465.1 292.3,466.4 294.6,467.6 296.1,469.4 
	298.4,470.7 298.3,473.6 297.9,476.4 297.1,479.2 298.7,481 300.2,482.8 301.3,484.8 302,487 301.3,489.5 303.2,491.4 304.5,493.5 
	304.9,495.9 303.8,498.2 "/>
<polyline class="st0" points="300.4,500 302.8,497.8 303.4,495.5 303.1,493.3 301.6,491.3 300.1,489.4 300.8,487 299.9,485 
	298.8,483.1 297.4,481.4 295.9,479.7 296.8,476.9 297.2,474.3 297.4,471.6 295.2,470.2 293.7,468.5 292.1,467 289.8,466 
	287.8,464.9 285.1,464.5 283.6,463.1 283.1,460.5 281.2,459.4 278.9,459 278.3,456.1 277.1,453.8 276,451.2 273.5,451.1 
	270.8,451.7 268.5,451.5 266.6,450.2 265.1,447.9 262.8,447.5 260.4,448.1 258.2,448.1 255.9,448.9 253.9,446.6 251.7,446.8 
	249.5,447.7 247.3,447.8 245.1,448 242.8,446.9 240.4,446.1 238.2,446.8 236.4,448.6 235.3,452.6 233.2,453 229.9,450.2 
	227.9,451.4 226.1,452.6 223.7,453 221.9,454.3 219.8,455.1 218.5,457.2 217.6,459.5 216.7,461.8 214.9,463 213.7,464.8 212,466.1 
	210.9,467.9 209.4,469.4 207.4,470.6 204.8,471.5 203.3,473.2 202.4,475.3 203.9,478.5 201.2,479.6 199.6,481.4 199.8,483.8 
	201.5,486.5 201.2,488.6 198.6,490.2 196,492 195.8,494.3 195.8,496.6 196.7,498.9 "/>
<polyline class="st0" points="197.9,500 197.2,497.9 197.4,495.7 197.6,493.6 197.8,491.4 200.9,489.9 202.5,488.2 201.6,485.9 
	201.1,483.5 200.8,481.1 203.3,479.9 205.3,478.6 203.3,475.2 204.9,473.7 206.2,472 208.9,471.3 210.6,470.1 212.1,468.6 
	213.2,467 214.7,465.6 215.8,464 217.6,462.9 218.4,460.7 219.1,458.2 220.4,456.3 222.4,455.6 224.1,454.3 226.4,454 228.2,452.9 
	229.8,451.3 232.9,453.6 235.3,454.5 236.3,450.8 237.9,448.6 239.9,447.4 242.3,448.6 244.4,448.4 246.6,450.4 248.6,450 
	250.7,448.6 252.8,447.9 254.8,449.2 256.7,450.4 259,449.1 260.9,450.3 263.5,448.5 265.3,450 266.8,452.1 268.7,453.1 271,453 
	273.9,451.7 275.6,453.1 276.5,456 278.1,457.2 278.2,460.7 280.9,460.4 282.2,462.1 282.6,464.6 284.4,465.5 287,465.9 
	288.9,466.9 291.2,467.8 292.6,469.3 294,470.9 296.2,472.2 295.9,474.8 295.4,477.4 295,479.9 295.8,481.7 297.1,483.4 
	298.2,485.1 299.4,487 299.1,489.1 299.7,491.1 301.7,492.9 301.7,495 302,497.1 300.1,499.3 "/>
<polyline class="st0" points="297.6,500 299.9,498 300.7,496 300.5,494 299.2,492.1 297.3,490.5 297.7,488.5 298.1,486.3 
	296.8,484.7 295.2,483.2 293.6,481.8 294.1,479.4 293.8,477.5 294.5,474.8 294.6,472.4 292.3,471.4 291.2,469.7 288.9,469 
	287.2,467.8 285.5,466.7 283,466.5 281.7,465.2 281.3,462.8 279.8,461.6 277.3,461.8 277.2,458.4 275.7,457.2 275,454.4 273.3,453 
	270.5,454.3 268.3,454.4 266.5,453.6 265,451.9 263.5,450.1 261,451.6 259.3,450.3 257.1,450.9 255.1,451.2 253.3,449.4 
	251.3,449.7 249.3,450.6 247.4,450.6 245.4,450.8 243.3,449.7 241.1,449.1 239.1,449.2 237.3,450.7 236.1,453.8 234.8,455.7 
	231.9,453.4 229.6,453 228.1,454.6 226.4,455.8 224.4,456.3 222.5,456.9 220.7,458 219.2,459.4 219.2,462.6 218,464 216.9,465.6 
	215.5,466.9 213.9,468 213.1,469.8 211.6,471.1 209.8,472.2 207.3,472.9 206.1,474.5 204.6,475.9 206.6,479.2 204.7,480.4 
	202.1,481.5 202.4,483.8 202.5,485.9 204.1,488.3 202.6,489.9 199.6,491.4 199,493.3 198.6,495.3 198.7,497.4 199.6,499.4 "/>
<polyline class="st0" points="200.9,500 200.2,498.1 200.4,496.2 200.5,494.2 200.6,492.3 203.2,490.8 205.5,489.5 205.7,487.7 
	204,485.3 203.9,483.3 204.6,481.5 207.6,480.8 207.7,478.9 205.9,475.8 207.4,474.4 209.6,473.5 211.8,472.8 213.3,471.7 
	214.5,470.4 215.7,469.1 216.9,467.7 217.9,466.2 219.4,465.2 220.2,463.3 220.4,460.6 221.7,459.1 223.4,458.2 225.3,457.6 
	227.2,457.1 228.7,456 230.2,454.6 232.3,454.7 235.1,457.2 236.6,456 237.5,452.6 239.1,451.1 240.9,450.3 243.1,451.3 245,451.8 
	247,453.1 248.8,452.9 250.6,451.6 252.5,450.9 254.4,451.7 256,453.5 258.1,452.1 259.9,452.8 262.2,451.3 263.9,452.2 
	265.2,454.3 266.9,455.3 268.6,455.9 270.9,455.3 273.4,454.8 274.5,456.7 275.3,459.1 276.8,460.2 276.6,463.5 279.3,463 
	280.2,464.7 280.6,467 282.4,467.6 284.7,467.9 286.4,468.8 288.2,469.8 290,470.8 291.1,472.4 293.4,473.2 293.2,475.6 
	292.4,478.1 292.8,480 292.1,482.2 293.5,483.6 295.3,484.9 296.2,486.6 296.5,488.4 295.8,490.4 297.2,492 298.8,493.7 299,495.6 
	298.8,497.5 297,499.4 "/>
<polyline class="st0" points="294.3,500 296.6,498.2 297.6,496.4 297.2,494.6 296.3,493 294.6,491.5 294.8,489.7 294.9,487.9 
	293.7,486.4 292.7,485 291.7,483.5 290.3,482.3 291.6,479.8 292,477.6 292,475.6 291.2,473.9 289.4,472.9 288.6,471.3 286.1,470.9 
	284.6,470 283.2,468.9 280.9,468.8 279.4,468 279.1,465.8 278.2,464.2 275.6,464.9 275.8,461.6 274.4,460.6 273.7,458.2 
	272.8,456.2 270.4,456.8 268.2,457.3 266.4,457.3 264.9,456.2 263.7,454.1 262.2,452.9 259.9,454.9 258.4,453.6 256.4,454.5 
	254.7,454.3 253.1,452.6 251.3,452.9 249.5,453.7 247.8,454.1 246.1,454.6 244.2,452.8 242.4,453.1 240.4,452.1 238.8,453.2 
	237.5,455.4 236.8,458.9 234.8,458.3 232,455.7 230.5,456.8 229,457.8 227.2,458.2 225.7,459.2 224.1,459.9 222.5,460.9 221.1,462 
	221.3,465.1 220.2,466.4 219.1,467.7 218,469 216.8,470.2 215.8,471.5 214.7,472.8 213.2,473.8 211.1,474.4 209,475.2 207.6,476.5 
	208.9,479.2 209.5,481.4 206.6,482 205.2,483.3 205.5,485.3 206.5,487.4 207.1,489.3 205.6,490.7 202.6,492 202.2,493.7 
	201.8,495.5 202,497.4 202.9,499.2 "/>
<polyline class="st0" points="204.4,500 203.8,498.3 203.7,496.6 203.8,494.9 203.8,493.2 206,491.8 208.1,490.6 209.2,489.3 
	207.2,487.1 207.1,485.3 206.8,483.4 209,482.5 211.1,481.7 209.7,479.2 209.7,477.3 210.9,476.1 212.8,475.3 215,474.9 
	216.2,473.8 217.2,472.6 218.2,471.4 219.3,470.2 220.4,469.1 221.3,467.8 222.4,466.7 222.1,463.6 223.6,462.8 224.8,461.6 
	226.3,460.9 227.6,459.8 229.5,459.8 230.9,458.8 232,457.3 234.4,458.8 236.7,460.5 237.6,458.3 238.6,455.5 240,454.3 
	241.7,453.8 243.6,454.8 245.3,455.1 247.1,456.9 248.6,456.5 250.2,455.4 251.9,454.6 253.6,454.4 255,456.7 256.8,455.8 
	258.5,455.4 260,456.5 262.1,455 263.4,456.3 264.6,458.2 265.9,459.2 267.8,458.9 269.9,458.3 272,457.9 272.9,459.9 273.5,462.1 
	274.8,463.1 274.5,466.3 277,465.6 278,466.9 278.3,468.9 279.2,470.2 281.5,470.1 282.6,471.2 284.7,471.6 286.9,472 287.7,473.5 
	289,474.7 290.6,475.7 290.2,477.9 289.4,480.2 289.4,482 289.1,483.8 290.5,484.9 292,486.1 292.8,487.5 293.2,489.1 292.5,491 
	293.4,492.4 295.2,493.8 295.2,495.5 295.8,497.1 294.4,498.8 "/>
<polyline class="st0" points="290.4,500 292.6,498.5 293.7,496.9 293.2,495.4 292.9,493.8 291.2,492.6 290.6,491.2 291.2,489.5 
	290.7,488.1 290,486.7 288.5,485.7 287.2,484.6 287.5,482.9 287.6,481.2 288.5,479 288.7,477 287.5,475.9 286.1,475 285.4,473.5 
	283.1,473.4 281.8,472.5 280.5,471.6 278.4,471.6 276.9,471.1 276.9,469.1 276.3,467.4 274.3,467.6 273.4,466.4 272.9,464.4 
	272.1,462.8 271.5,460.7 270.3,459.6 268,460.6 266.1,461.2 264.8,460.4 263.5,459.6 262.5,457.7 261.1,456.6 259,458.7 
	257.8,457.4 256.1,458 254.5,458.5 253.2,456.5 251.6,456.7 250.1,457.5 248.6,458.6 247.1,459 245.5,457.2 243.9,456.8 
	242.1,455.9 240.6,456.2 239.2,457.4 238.3,459.9 237.7,462.7 235.7,461.4 233.2,459.3 232.1,460.5 230.7,461.3 229.2,461.7 
	227.9,462.5 226.3,462.9 224.9,463.7 224,465.1 223.8,467.3 223.4,469.1 222.1,469.8 221.3,471.1 220.5,472.4 219.1,473 
	218.6,474.5 217.3,475.4 215.9,476.2 213.9,476.7 212.2,477.4 210.8,478.5 212.6,481.1 213.1,483 210.3,483.4 208.8,484.5 
	209.2,486.3 209.4,487.9 211.2,490 209.9,491.1 207.9,492.3 205.9,493.5 205.9,495.1 205.9,496.7 205.8,498.3 206.5,499.8 "/>
<polyline class="st0" points="208.9,500 208.3,498.5 208,497.1 208.1,495.6 208.1,494.1 209.3,492.9 211.9,492 213.2,490.9 
	212.9,489.4 211.6,487.6 211.4,486 211.5,484.6 213.9,484 215.2,483.2 213,480.5 214,479.4 215,478.3 216.6,477.7 218.7,477.5 
	219.7,476.6 220.6,475.6 221.1,474.3 222.3,473.5 223.2,472.6 224,471.5 225,470.5 225.3,468.8 225.8,467.1 226.4,465.5 
	227.7,464.9 229.2,464.5 230.4,463.9 231.8,463.4 233,462.6 234.1,461.4 236.3,463.4 238.2,464.8 238.9,462.6 239.6,460 
	240.9,458.9 242.2,458.1 243.9,459.5 245.3,459 246.9,461.1 248.2,460.5 249.6,460 251,459.3 252.4,458.9 253.7,460 255,461.4 
	256.5,460.1 258,460.1 259.4,460.3 261.1,459.3 262.2,460.9 263.1,462.4 264.2,463.4 265.9,463.1 267.7,462.5 269.6,461.9 
	270.5,463.3 270.8,465.7 272,466.4 271.8,469 273.2,469.4 275,469.3 275.4,470.9 275.4,472.9 276.8,473.3 278.8,473.2 279.9,474.1 
	281.2,474.8 283.5,474.8 284.1,476.2 285.2,477.1 286.8,477.9 286.2,479.9 285.3,482 285.6,483.4 284.7,485.2 285.9,486.1 
	287.1,487.2 287.7,488.4 288.9,489.5 288.6,491 288.1,492.5 289.8,493.6 290.9,494.9 291,496.3 291.1,497.7 289.6,499.2 "/>
<polyline class="st0" points="285.3,500 287.5,498.7 288.6,497.4 288,496.1 288.2,494.8 286.6,493.8 285.3,492.8 285.8,491.4 
	286.4,490 285.1,489 284.3,488 283.5,487 282.1,486.3 283.1,484.5 282.9,483.2 283.9,481.2 284.4,479.4 283.1,478.6 281.9,477.9 
	281.4,476.7 279.3,476.6 278.3,475.8 277,475.3 275.4,475.2 273.9,474.9 273.8,473.4 273.5,471.9 272.4,471.2 270.3,472.1 
	270.8,469.2 269.9,468.4 269.4,466.6 269,464.6 267.8,464 265.7,465.4 264.1,465.9 263,465.2 261.9,464.6 261.1,462.8 260.1,461.8 
	258.3,463.5 257.2,462.5 255.8,463 254.4,463.9 253.4,462.2 252.1,461.6 250.8,462 249.6,462.8 248.3,463.2 247.1,463.8 
	245.6,461.8 244.4,462.1 242.9,460.8 241.6,461.3 240.5,462.3 239.8,464.6 239.4,467.5 237.9,466.7 235.6,464.2 234.4,464.7 
	233.4,465.6 232.4,466.5 230.8,466.3 229.8,467.1 228.6,467.6 227.7,468.7 226.5,469.2 227,471.9 226.5,473.2 225.3,473.6 
	224.8,474.9 224.2,476 222.9,476.4 222.5,477.6 221.5,478.4 220.4,479 218.6,479.3 216.9,479.8 216,480.8 215.6,482.1 217.6,484.5 
	216.2,485.1 213.9,485.6 213.9,487 214.1,488.4 215.4,490.1 215.9,491.5 214.6,492.4 212.5,493.3 210.8,494.3 210.9,495.7 211,497 
	210.9,498.3 211.7,499.6 "/>
<polyline class="st0" points="214.8,500 214.2,498.8 213.9,497.6 213.9,496.5 214.3,495.3 214.4,494.1 217,493.5 218.9,492.8 
	219.4,491.8 217,490 217,488.8 216.6,487.4 217.8,486.7 220.2,486.5 220.3,485.4 218.1,483 219.2,482.3 220.1,481.4 221.4,480.9 
	223.3,480.9 224.2,480.2 225,479.5 225.3,478.4 226.6,478.1 227.1,477.1 227.4,476 228.6,475.6 229,474.5 228.4,471.8 229.6,471.6 
	230.1,470.2 231.3,469.9 232.3,469.4 233.5,469.3 234.5,468.6 235.4,468 236.2,466.8 238.1,468.5 239.9,470.2 240.6,469.2 
	241,466.5 241.8,465 242.8,464 244.1,464.9 245.3,465 246.6,465.7 247.8,467.1 248.9,466.8 249.9,465.8 251.1,465 252.2,464.8 
	253.3,466.1 254.3,467.2 255.6,466 256.7,465.8 257.8,466.5 259.3,464.9 260.3,465.9 260.9,467.6 261.9,468.2 262.9,468.8 
	264.3,468.3 266.2,466.9 267.4,467.2 267.8,469.1 268,470.9 269,471.4 268.3,474.3 269.9,474 271.3,473.9 271.5,475.3 271.2,477.2 
	272.4,477.5 274.2,477.2 274.9,478.1 276.6,478.1 278.4,478.1 278.9,479.2 279.6,480.1 281.3,480.4 281.5,481.7 281.3,483.1 
	280.3,484.9 279.9,486.3 279.4,487.7 280.4,488.5 281.8,489.1 282.1,490.1 283.2,491 282.8,492.2 282.2,493.5 283.6,494.4 
	285,495.3 284.9,496.5 285.4,497.6 284.4,498.8 282.3,499.9 "/>
<polyline class="st0" points="278.5,500 280.6,499 281.8,498 281.4,497 281.4,496 280.5,495.1 279,494.4 279.3,493.4 279.6,492.3 
	279.3,491.4 278.7,490.6 277.7,489.9 276.8,489.3 275.8,488.7 277.2,487 276.9,486.2 278,484.5 278.6,482.9 277.5,482.3 
	276.4,481.8 275.9,481 274.9,480.4 273.5,480.3 272,480.4 271.4,479.7 269.6,480.1 268.7,479.8 269.1,478 269,476.7 267.6,476.9 
	266.2,477.3 267,474.5 266.2,474 266,472.4 265.8,470.6 264.9,470.1 263.1,471.4 261.8,472 260.7,472 260,471.3 259.4,470 
	258.8,468.5 257.6,468.7 256.3,470 255.5,469.2 254.4,469.7 253.3,470.5 252.6,468.4 251.6,468.4 250.5,468.9 249.6,469.7 
	248.6,470 247.7,470.6 246.6,468.7 245.5,468.6 244.4,467.8 243.3,467.6 242.4,468.6 241.9,470.3 241.7,473.2 240.9,473.7 
	239.3,471.7 237.6,470.2 236.9,471.3 236.1,471.8 235.4,472.5 234.1,472.4 233.3,473 232.3,473.3 231.6,474.1 230.7,474.5 
	231.2,476.7 231.1,478.1 230.3,478.5 229.8,479.4 229.2,480.1 228.6,480.7 227.8,481.2 227.4,482.1 226.7,482.7 225.4,483 
	223.9,483.1 222.4,483.4 221.7,484.1 221.8,485.4 223.8,487.4 222.5,487.9 220.5,488.1 220.1,489 220.5,490.2 220.8,491.3 
	222.7,492.8 222.2,493.6 220.4,494.2 217.9,494.8 217.9,495.8 217.5,496.8 217.5,497.8 217.8,498.9 218.4,499.9 "/>
<polyline class="st0" points="222.6,500 222.2,499.1 221.8,498.3 221.7,497.4 222.1,496.6 222,495.7 223.9,495.1 225.5,494.6 
	226.5,494.1 226.1,493.2 224.7,492 224.3,491 223.8,489.9 225.4,489.6 227.7,489.8 227.3,488.7 225,486.6 226,486.2 226.6,485.6 
	227.8,485.4 229.3,485.4 230.2,485.1 230.9,484.7 230.9,483.7 232,483.7 232.3,482.9 232.9,482.4 233.2,481.6 233.9,481.2 
	233.9,480 233.2,477.9 234.1,477.7 234.5,476.7 235.4,476.6 236.2,476.3 237,475.9 237.8,475.7 238.5,475.3 238.9,474.1 
	240.2,474.9 242,477.6 242.9,478 242.8,475.1 243.1,473.1 243.8,472.3 244.6,471.7 245.7,473 246.5,472.7 247.4,473.7 248.3,474.9 
	249.1,474.6 249.9,473.6 250.7,472.9 251.6,472.5 252.4,473 253,474.8 253.9,473.8 254.9,473.2 255.5,474.3 256.7,472.6 
	257.6,472.6 258.1,474 258.5,475.3 259.2,475.8 260,476 261.2,475.4 262.8,473.9 263.7,474.1 263.9,475.7 263.7,477.5 264.5,477.9 
	264.1,479.8 264.4,480.7 265.9,480 266.3,480.8 266.4,481.8 266.3,482.9 267.4,482.9 268.8,482.6 269.5,483.1 270.6,483.2 
	272.2,482.9 272.6,483.8 273.1,484.5 274.5,484.6 274.8,485.4 274.3,486.7 273.1,488.3 273.2,489.1 271.9,490.5 273,490.9 
	273.7,491.4 274.7,491.9 275.2,492.6 275.5,493.4 275.3,494.2 274.7,495.2 276.1,495.7 277.3,496.4 277.1,497.2 277.6,498 
	276.7,498.9 275,499.8 "/>
<polyline class="st0" points="269.5,500 271.5,499.4 272.8,498.6 272.6,498 272.6,497.3 271.9,496.7 270.6,496.3 270,495.8 
	270.4,495 271.1,494.2 270,493.9 270,493.2 268.9,493 268.1,492.6 267.7,492.2 269.1,490.9 268.8,490.3 270.1,488.9 270.8,487.7 
	270.3,487.2 269.1,487.1 268.7,486.6 268.4,485.9 266.9,486.3 266,486.2 265.3,486 264.1,486.2 263,486.6 262.8,485.9 263,484.8 
	263.2,483.7 262.1,484.1 261,484.6 262,482.1 261.4,481.8 261.5,480.4 261.5,479 261,478.4 259.8,479.2 258.8,480 257.9,480.4 
	257.3,480.1 256.9,479.5 256.6,478 256.1,477.2 255.2,478.2 254.4,478.6 253.8,478.2 253.1,478.7 252.4,479.5 251.9,477.6 
	251.2,477.4 250.6,477.8 249.9,478.4 249.3,479.5 248.7,479.5 248,478.7 247.2,477.4 246.6,477.9 245.6,476.4 245,476.7 
	244.4,477.5 244.2,479.2 244.4,482.1 243.9,482.2 242.6,480.4 241.2,478.6 240.8,479.3 240.3,479.9 239.8,480.4 238.8,479.9 
	238.3,480.5 237.6,480.5 236.9,480.8 237,482.1 236.1,482.1 237.1,484.3 237,485.1 236.2,485.2 236.1,485.8 235.7,486.3 
	235.4,486.8 234.5,486.9 234.6,487.7 234,488 233.2,488.2 231.9,488 230.8,488.1 230.3,488.6 229.1,488.7 231.3,490.5 231.9,491.5 
	230.4,491.5 228.5,491.5 228.8,492.3 229.1,493.1 229.4,493.9 231.5,495.1 231.2,495.6 229.6,495.9 227.2,496.1 226.4,496.7 
	226.6,497.4 226.9,498.1 226.8,498.8 227.6,499.5 "/>
<polyline class="st0" points="232.6,500 232.2,499.5 231.9,499 231.8,498.4 231.9,497.9 231.5,497.3 232.5,497 234.7,496.9 
	236.3,496.8 236.5,496.4 234.5,495.4 234,494.8 233.7,494.1 233.1,493.4 234.8,493.5 236.7,493.9 236.2,493.2 233.8,491.4 
	234.4,491.1 234.7,490.7 235.8,490.8 237,491 238.1,491.3 238.5,491 238.7,490.7 238.7,490.1 239.6,490.3 239.5,489.7 239.9,489.5 
	239.9,488.9 240.3,488.7 240.1,487.8 239.2,485.8 240,486 239.9,485 240.4,484.9 241,484.9 241.3,484.4 242.2,484.9 242.5,484.5 
	242.9,484.1 243.1,483.3 244.2,484.8 245.5,487.1 246,487.3 245.6,484.5 245.6,482.7 246,482.1 246.4,481.4 247.1,482.5 
	247.6,482.6 248.2,483 248.8,484.7 249.2,484 249.7,484.1 250.2,483.4 250.7,482.7 251.2,482.5 251.6,483.8 251.9,484.8 
	252.5,483.6 253.1,482.9 253.4,484 254.3,482.5 254.9,482.1 255.2,483.1 255.2,484.5 255.6,484.9 256,485.2 256.7,484.7 
	257.6,483.9 258.6,483 259,483.3 258.9,484.7 258.7,486 259.1,486.2 258.2,488.3 258.5,488.6 259.7,487.8 260,488.1 259.8,489 
	259.4,490.1 260,490 261.2,489.4 261.4,489.9 262.6,489.4 263.2,489.5 264.6,489.1 264.7,489.7 265.1,490 266.4,489.8 266.1,490.6 
	265.6,491.5 264.2,492.8 264.3,493.2 262.8,494.4 263.5,494.6 264.2,494.7 265.2,494.9 265.1,495.4 266.2,495.5 265.5,496.2 
	265,496.8 265.4,497.1 266.6,497.4 267.4,497.8 267.3,498.3 267.7,498.8 266.7,499.4 265.1,499.8 "/>
<polyline class="st0" points="259,500 261,499.7 262.1,499.3 262.2,499 262.1,498.6 262,498.3 260.8,498.2 259.7,498.1 260.3,497.7 
	260.8,497.2 261.1,496.9 260,496.8 259.7,496.6 258.9,496.6 258.3,496.6 258.1,496.4 259.6,495.4 259.4,495.2 260.9,494 
	261.5,493.3 261.9,492.6 260.7,492.9 260.3,492.8 260.3,492.4 259.6,492.5 258.7,492.8 257.6,493.3 257.5,493 256.5,493.6 
	255.7,494 255.8,493.7 256.2,492.8 256.7,491.8 256,492.2 254.8,493.4 255.9,491.4 255.9,490.8 255.8,490.5 256.3,488.9 
	256.6,487.6 256.2,487.5 255.1,489 254.4,489.7 253.9,490.2 253.7,490 253.5,489.4 253.6,488.1 253.5,487.3 253,487.7 252.3,489.3 
	252.2,488.1 251.7,488.9 251.3,490.1 251.1,489.3 250.9,487.8 250.5,488 250.2,488.4 249.9,489 249.6,489.8 249.4,490.1 249,489.1 
	248.5,487.8 248.2,488.1 247.6,486.8 247.2,486.7 247,487.5 247,488.6 247.1,490.3 247.6,492.5 247.1,491.9 245.8,489.3 245,488.1 
	245,489 244.8,489.3 244.6,489.7 243.9,489 243.7,489.5 243.3,489.4 242.9,489.4 243,490.2 242.5,490.1 243.4,491.8 243.7,492.6 
	243.5,492.8 243.4,493 243.4,493.5 243.4,493.7 242.8,493.6 242.7,493.8 242.8,494.2 242.4,494.3 241.9,494.2 240.7,493.8 
	239.7,493.5 239.3,493.7 238.4,493.6 239.1,494.4 241.3,495.8 241.1,496 239.3,495.5 238,495.4 238.7,496 239.2,496.5 239.9,497 
	241.6,497.8 241.4,498 240,498 237.9,497.9 236.9,498.1 237.3,498.5 236.9,498.8 237.1,499.2 237.3,499.6 237.9,499.9 "/>
<polyline class="st0" points="243.1,500 242.8,499.8 242.4,499.6 242.4,499.4 242.1,499.1 242.2,499 242.3,498.8 244.2,498.9 
	245.4,499 246.3,499.1 246.5,499 244.1,498.2 243.9,498 243.5,497.6 242.9,497.2 244.4,497.6 246.2,498.3 245.8,498 243.5,496.6 
	243.1,496.1 243.7,496.3 244.1,496.3 244.9,496.6 246,497.2 246.5,497.4 246.7,497.4 246.8,497.4 246.6,497 247.2,497.4 247,497.1 
	247.2,497.1 247,496.7 247.2,496.8 247,496.3 245.9,494.8 246,494.6 245.7,493.8 246,493.9 246.2,494 246.5,494 246.5,493.7 
	247,494.2 247.1,493.9 247.1,493.6 247.1,493 247.9,494.4 248.9,497 249.2,497.5 248.6,495.2 248.3,493.6 248.2,492.5 248.3,491.8 
	248.5,491.8 249,493.3 249.1,493 249.4,493.9 249.7,495.3 249.8,494.6 249.9,494.6 250.1,493.9 250.2,493.2 250.4,493 250.6,493.4 
	250.6,495 250.8,494.4 251.1,493.6 251.3,493.6 251.3,494.3 252,492 252.2,492.3 252,493.5 251.9,494.5 252,494.7 252,494.9 
	252.4,494.4 253,493.6 253.9,492.2 254.1,492.2 253.8,493.4 253.1,494.8 253.1,495.1 253.1,495.4 251.9,497.4 252.6,496.6 
	253.3,495.9 253,496.5 252.8,496.9 252.2,497.7 252.5,497.5 253.5,496.7 253.6,496.7 254.4,496.2 254.6,496.2 256,495.4 256,495.7 
	256.1,495.8 256.7,495.7 257.5,495.4 256.7,496.1 256.4,496.5 254.9,497.5 254.8,497.8 253.2,498.6 253.6,498.5 254.1,498.5 
	254.9,498.3 255.1,498.4 256,498.3 255.7,498.5 255.4,498.8 254.5,499.1 255.4,499.1 256.5,499 257.1,499.2 257,499.4 257.2,499.5 
	256.2,499.8 254.8,499.9 "/>
</svg>
